<?xml version="1.0" encoding="UTF-8" standalone="no"?>
<!DOCTYPE svg PUBLIC "-//W3C//DTD SVG 1.1//EN" "http://www.w3.org/Graphics/SVG/1.1/DTD/svg11.dtd">
<!-- Généré par Microsoft Visio, SVG Export nucleotic-entreprise.svg Page-2 -->
<svg xmlns="http://www.w3.org/2000/svg" xmlns:xlink="http://www.w3.org/1999/xlink" xmlns:ev="http://www.w3.org/2001/xml-events"
		xmlns:v="http://schemas.microsoft.com/visio/2003/SVGExtensions/" width="4.9252in" height="1.33858in"
		viewBox="0 0 354.614 96.378" xml:space="preserve" color-interpolation-filters="sRGB" class="st4">
	<v:documentProperties v:langID="1036" v:metric="true" v:viewMarkup="false">
		<v:userDefs>
			<v:ud v:nameU="msvNoAutoConnect" v:val="VT0(1):26"/>
		</v:userDefs>
	</v:documentProperties>

	<style type="text/css">
	<![CDATA[
		.st1 {fill:#414143;stroke:none;stroke-linecap:round;stroke-linejoin:round;stroke-width:0.75}
		.st2 {fill:#26b6ae;stroke:none;stroke-linecap:round;stroke-linejoin:round;stroke-width:0.75}
		.st3 {fill:#43c1d7;stroke:none;stroke-linecap:round;stroke-linejoin:round;stroke-width:0.75}
		.st4 {fill:none;fill-rule:evenodd;font-size:12px;overflow:visible;stroke-linecap:square;stroke-miterlimit:3}
	]]>
	</style>

	<g v:mID="4" v:index="2" v:groupContext="foregroundPage">
		<title>Page 2</title>
		<v:pageProperties v:drawingScale="0.0393701" v:pageScale="0.0393701" v:drawingUnits="24" v:shadowOffsetX="8.50394"
				v:shadowOffsetY="-8.50394"/>
		<g id="group1-1" transform="translate(1.38882,-2.04724)" v:mID="1" v:groupContext="group">
			<title>Feuille.1</title>
			<g id="shape2-2" v:mID="2" v:groupContext="shape" transform="translate(98.3373,-2.58002)">
				<title>Feuille.2</title>
				<path d="M6 96.38 L0 96.38 L0 51.8 L15.78 51.8 L15.78 51.8 C21 51.8 24.96 52.94 27.54 55.34 C30.12 57.68 31.44 61.4
							 31.44 66.44 L31.44 96.38 L25.44 96.38 L25.44 65.6 L25.44 65.6 C25.44 62.72 24.54 60.62 22.8 59.36 C21.06
							 58.04 18.72 57.38 15.84 57.38 L6 57.38 L6 96.38 Z" class="st1"/>
			</g>
			<g id="shape3-4" v:mID="3" v:groupContext="shape" transform="translate(137.756,-2.58002)">
				<title>Feuille.3</title>
				<path d="M25.38 96.38 L14.34 96.38 C9.6 96.38 6.24 95.72 4.2 94.28 C2.34 93.08 1.2 91.58 0.72 89.9 C0.24 88.16 0
							 85.88 0 83.06 L0 65.78 L5.58 65.78 L5.58 83 L5.58 83 C5.58 83.78 5.64 84.44 5.64 84.98 C5.7 85.52 5.82
							 86.18 6.12 87.02 C6.36 87.86 6.72 88.52 7.2 89.06 C7.68 89.6 8.34 90.02 9.24 90.44 C10.14 90.86 11.22
							 91.04 12.48 91.04 L19.74 91.04 L19.74 65.78 L25.38 65.78 L25.38 96.38 Z" class="st1"/>
			</g>
			<g id="shape4-6" v:mID="4" v:groupContext="shape" transform="translate(170.095,-1.92001)">
				<title>Feuille.4</title>
				<path d="M21.9 89.06 L25.74 92.84 C22.8 95.18 19.44 96.38 15.66 96.38 C10.92 96.38 7.14 94.88 4.32 91.82 C1.44 88.76
							 0 84.98 0 80.42 C0 75.98 1.5 72.2 4.5 69.14 C7.5 66.02 11.22 64.52 15.66 64.52 C19.44 64.52 22.8 65.72
							 25.74 68.06 L21.96 71.9 C20.16 70.52 18.06 69.86 15.66 69.86 C12.72 69.86 10.38 70.82 8.64 72.74 C6.96
							 74.72 6.06 77.24 6.06 80.42 C6.06 83.66 6.96 86.18 8.64 88.1 C10.38 90.08 12.72 91.04 15.66 91.04 C18.12
							 91.04 20.22 90.38 21.9 89.06 Z" class="st1"/>
			</g>
			<g id="shape5-8" v:mID="5" v:groupContext="shape" transform="translate(201.235,-2.58002)">
				<title>Feuille.5</title>
				<path d="M0 84.32 L0 51.8 L5.76 51.8 L5.76 84.32 L5.76 84.32 C5.76 85.82 5.94 87.08 6.3 88.04 C6.66 89 7.2 89.66
							 7.98 90.08 C8.76 90.44 9.48 90.74 10.2 90.86 C10.92 90.98 11.88 91.04 13.08 91.04 L13.08 96.38 C8.28
							 96.38 4.92 95.48 2.94 93.68 C0.96 91.82 0 88.7 0 84.32 Z" class="st1"/>
			</g>
			<g id="shape6-10" v:mID="6" v:groupContext="shape" transform="translate(217.494,-1.92001)">
				<title>Feuille.6</title>
				<path d="M15.9 64.52 C23.16 64.82 26.76 67.82 26.76 73.52 C26.76 80.6 22.14 84.14 12.78 84.14 L10.2 84.14 L10.2 79.22
							 L13.26 79.22 L13.26 79.22 C16.08 79.22 18.06 78.8 19.2 77.9 C20.28 77.06 20.82 75.62 20.82 73.58 C20.82
							 72.26 20.34 71.24 19.38 70.58 C18.42 69.92 17.16 69.62 15.6 69.62 C12.6 69.62 10.2 70.7 8.52 72.8 C6.78
							 74.9 5.94 77.48 5.94 80.42 C5.94 83.6 6.84 86.12 8.7 88.1 C10.56 90.08 12.96 91.04 15.9 91.04 C18.6
							 91.04 20.82 90.38 22.5 89.06 L26.34 92.84 C23.4 95.18 19.92 96.38 15.9 96.38 C11.1 96.38 7.2 94.94 4.32
							 92.12 C1.44 89.24 0 85.58 0 81.08 C0 76.04 1.44 72.02 4.26 68.9 C7.08 65.78 10.98 64.34 15.9 64.52 Z"
						class="st1"/>
			</g>
			<g id="shape7-12" v:mID="7" v:groupContext="shape" transform="translate(249.653,-1.92001)">
				<title>Feuille.7</title>
				<path d="M15.66 69.86 C12.66 69.86 10.26 70.82 8.46 72.8 C6.66 74.78 5.76 77.3 5.76 80.42 C5.76 83.6 6.66 86.12 8.46
							 88.1 C10.26 90.08 12.66 91.04 15.66 91.04 C18.66 91.04 21.06 90.02 22.86 88.04 C24.66 86.06 25.5 83.54
							 25.5 80.42 C25.5 77.36 24.66 74.78 22.86 72.8 C21.06 70.88 18.66 69.86 15.66 69.86 ZM4.5 69.14 C7.44
							 66.08 11.16 64.52 15.66 64.52 C17.82 64.52 19.86 64.94 21.72 65.78 C23.64 66.56 25.26 67.7 26.7 69.14
							 C28.14 70.58 29.22 72.32 30.06 74.24 C30.84 76.16 31.26 78.26 31.26 80.42 C31.26 82.64 30.84 84.74 30.06
							 86.66 C29.28 88.58 28.2 90.26 26.82 91.7 C25.38 93.2 23.76 94.34 21.84 95.12 C19.92 95.96 17.88 96.38
							 15.66 96.38 C13.38 96.38 11.34 95.96 9.42 95.12 C7.56 94.34 5.88 93.2 4.5 91.7 C3.06 90.26 1.98 88.58
							 1.2 86.66 C0.42 84.74 0 82.64 0 80.42 C0 75.92 1.5 72.2 4.5 69.14 Z" class="st2"/>
			</g>
			<g id="shape8-14" v:mID="8" v:groupContext="shape" transform="translate(284.392,-2.58002)">
				<title>Feuille.8</title>
				<path d="M0 71.18 L11.46 59.72 L11.46 65.78 L20.04 65.78 L20.04 71.18 L11.46 71.18 L11.46 84.32 L11.46 84.32 C11.46
							 85.76 11.7 87.02 12.18 87.98 C12.66 88.94 13.38 89.66 14.28 90.08 C15.24 90.44 16.14 90.74 16.98 90.86
							 C17.76 90.98 18.84 91.04 20.04 91.04 L20.04 96.38 C15.18 96.38 11.52 95.48 9.18 93.62 C6.84 91.76 5.7
							 88.64 5.7 84.32 L5.7 71.18 L0 71.18 Z" class="st2"/>
			</g>
			<g id="shape9-16" v:mID="9" v:groupContext="shape" transform="translate(307.972,-2.58002)">
				<title>Feuille.9</title>
				<path d="M4.92 59.42 C4.38 58.7 4.14 57.92 4.14 57.08 C4.14 56.24 4.38 55.46 4.92 54.74 C5.52 54.02 6.36 53.72 7.5
							 53.72 C8.64 53.72 9.48 54.02 10.02 54.74 C10.62 55.46 10.86 56.24 10.86 57.08 C10.86 57.92 10.62 58.7
							 10.02 59.42 C9.48 60.08 8.64 60.44 7.5 60.44 C6.36 60.44 5.52 60.14 4.92 59.42 ZM10.8 96.38 L5.22 96.38
							 L5.22 71.18 L0 71.18 L2.52 65.78 L10.8 65.78 L10.8 96.38 Z" class="st2"/>
			</g>
			<g id="shape10-18" v:mID="10" v:groupContext="shape" transform="translate(326.391,-1.92001)">
				<title>Feuille.10</title>
				<path d="M21.84 89.06 L25.68 92.84 C22.74 95.18 19.38 96.38 15.6 96.38 C10.86 96.38 7.08 94.88 4.26 91.82 C1.38 88.76
							 0 84.98 0 80.42 C0 75.98 1.5 72.2 4.44 69.14 C7.44 66.02 11.16 64.52 15.6 64.52 C19.38 64.52 22.74 65.72
							 25.68 68.06 L21.9 71.9 C20.1 70.52 18 69.86 15.6 69.86 C12.66 69.86 10.32 70.82 8.64 72.74 C6.9 74.72
							 6 77.24 6 80.42 C6 83.66 6.9 86.18 8.64 88.1 C10.32 90.08 12.66 91.04 15.6 91.04 C18.06 91.04 20.16
							 90.38 21.84 89.06 Z" class="st2"/>
			</g>
			<g id="shape11-20" v:mID="11" v:groupContext="shape">
				<title>Feuille.11</title>
				<path d="M50.22 96.38 L50.22 96.26 L48.84 96.26 L48.84 96.2 L47.4 96.2 L47.4 96.08 L46.44 96.08 L46.44 95.96 L45.6
							 95.96 L45.6 95.9 L44.7 95.9 L44.7 95.78 L43.8 95.78 L43.8 95.66 L43.14 95.66 L43.14 95.6 L42.54 95.6
							 L42.54 95.48 L41.94 95.48 L41.94 95.36 L41.22 95.36 L41.22 95.3 L40.62 95.3 L40.62 95.18 L40.02 95.18
							 L40.02 95.06 L39.54 95.06 L39.54 95 L39 95 L39 94.88 L38.52 94.88 L38.52 94.76 L38.04 94.76 L38.04 94.7
							 L37.5 94.7 L37.5 94.58 L37.02 94.58 L37.02 94.46 L36.54 94.46 L36.54 94.4 L36.12 94.4 L36.12 94.28 L35.64
							 94.28 L35.64 94.16 L35.22 94.16 L35.22 94.1 L34.8 94.1 L34.8 93.98 L34.44 93.98 L34.44 93.86 L34.02
							 93.86 L34.02 93.8 L33.54 93.8 L33.54 93.68 L33.12 93.68 L33.12 93.56 L32.82 93.56 L32.82 93.5 L32.4
							 93.5 L32.4 93.38 L32.1 93.38 L32.1 93.26 L31.74 93.26 L31.74 93.2 L31.44 93.2 L31.44 93.08 L31.02 93.08
							 L31.02 92.96 L30.6 92.96 L30.6 92.9 L30.3 92.9 L30.3 92.78 L29.94 92.78 L29.94 92.66 L29.64 92.66 L29.64
							 92.6 L29.34 92.6 L29.34 92.48 L29.04 92.48 L29.04 92.36 L28.74 92.36 L28.74 92.3 L28.44 92.3 L28.44
							 92.18 L28.02 92.18 L28.02 92.06 L27.72 92.06 L27.72 92 L27.42 92 L27.42 91.88 L27.12 91.88 L27.12 91.76
							 L26.82 91.76 L26.82 91.7 L26.64 91.7 L26.64 91.58 L26.4 91.58 L26.4 91.46 L26.22 91.46 L26.22 91.4 L26.1
							 91.4 L26.1 91.28 L26.04 91.28 L26.04 91.16 L25.8 91.16 L25.8 91.1 L25.74 91.1 L25.74 90.98 L25.62 90.98
							 L25.62 90.8 L25.5 90.8 L25.5 90.68 L25.44 90.68 L25.44 90.56 L25.32 90.56 L25.32 90.38 L25.2 90.38 L25.2
							 90.2 L25.14 90.2 L25.14 89.9 L25.02 89.9 L25.02 89.36 L24.9 89.36 L24.9 88.7 L25.02 88.7 L25.02 88.16
							 L25.14 88.16 L25.14 87.86 L25.2 87.86 L25.2 87.68 L25.32 87.68 L25.32 87.5 L25.44 87.5 L25.44 87.38
							 L25.5 87.38 L25.5 87.26 L25.62 87.26 L25.62 87.08 L25.74 87.08 L25.74 86.96 L25.92 86.96 L25.92 86.9
							 L26.04 86.9 L26.04 86.78 L26.1 86.78 L26.1 86.66 L26.34 86.66 L26.34 86.6 L26.4 86.6 L26.4 86.48 L26.64
							 86.48 L26.64 86.36 L26.94 86.36 L26.94 86.3 L27.42 86.3 L27.42 86.18 L28.14 86.18 L28.14 86.3 L28.62
							 86.3 L28.62 86.36 L28.92 86.36 L28.92 86.48 L29.22 86.48 L29.22 86.6 L29.52 86.6 L29.52 86.66 L29.82
							 86.66 L29.82 86.78 L30.12 86.78 L30.12 86.9 L30.42 86.9 L30.42 86.96 L30.72 86.96 L30.72 87.08 L31.14
							 87.08 L31.14 87.2 L31.44 87.2 L31.44 87.26 L31.74 87.26 L31.74 87.38 L32.04 87.38 L32.04 87.5 L32.4
							 87.5 L32.4 87.56 L32.7 87.56 L32.7 87.68 L33.12 87.68 L33.12 87.8 L33.54 87.8 L33.54 87.86 L33.84 87.86
							 L33.84 87.98 L34.2 87.98 L34.2 88.1 L34.5 88.1 L34.5 88.16 L34.92 88.16 L34.92 88.28 L35.34 88.28 L35.34
							 88.4 L35.7 88.4 L35.7 88.46 L36.12 88.46 L36.12 88.58 L36.6 88.58 L36.6 88.7 L37.02 88.7 L37.02 88.76
							 L37.44 88.76 L37.44 88.88 L37.8 88.88 L37.8 89 L38.34 89 L38.34 89.06 L38.82 89.06 L38.82 89.18 L39.3
							 89.18 L39.3 89.3 L39.84 89.3 L39.84 89.36 L40.32 89.36 L40.32 89.48 L40.8 89.48 L40.8 89.6 L41.34 89.6
							 L41.34 89.66 L42 89.66 L42 89.78 L42.6 89.78 L42.6 89.9 L43.2 89.9 L43.2 89.96 L43.8 89.96 L43.8 90.08
							 L44.64 90.08 L44.64 90.2 L45.42 90.2 L45.42 90.26 L46.2 90.26 L46.2 90.38 L47.1 90.38 L47.1 90.5 L48.24
							 90.5 L48.24 90.56 L49.5 90.56 L49.5 90.68 L51.42 90.68 L51.42 90.8 L56.34 90.8 L56.34 90.68 L58.14 90.68
							 L58.14 90.56 L59.04 90.56 L59.04 90.5 L59.94 90.5 L59.94 90.38 L60.72 90.38 L60.72 90.26 L61.32 90.26
							 L61.32 90.2 L61.92 90.2 L61.92 90.08 L62.4 90.08 L62.4 89.96 L62.94 89.96 L62.94 89.9 L63.3 89.9 L63.3
							 89.78 L63.72 89.78 L63.72 89.66 L64.14 89.66 L64.14 89.6 L64.5 89.6 L64.5 89.48 L64.92 89.48 L64.92
							 89.36 L65.22 89.36 L65.22 89.3 L65.52 89.3 L65.52 89.18 L65.7 89.18 L65.7 89.06 L66 89.06 L66 89 L66.3
							 89 L66.3 88.88 L66.6 88.88 L66.6 88.76 L66.84 88.76 L66.84 88.7 L67.02 88.7 L67.02 88.58 L67.2 88.58
							 L67.2 88.46 L67.44 88.46 L67.44 88.4 L67.62 88.4 L67.62 88.28 L67.8 88.28 L67.8 88.16 L68.1 88.16 L68.1
							 88.1 L68.34 88.1 L68.34 87.98 L68.4 87.98 L68.4 87.86 L68.64 87.86 L68.64 87.8 L68.7 87.8 L68.7 87.68
							 L68.94 87.68 L68.94 87.56 L69.12 87.56 L69.12 87.5 L69.24 87.5 L69.24 87.38 L69.42 87.38 L69.42 87.26
							 L69.54 87.26 L69.54 87.2 L69.6 87.2 L69.6 87.08 L69.72 87.08 L69.72 86.96 L69.9 86.96 L69.9 86.9 L70.02
							 86.9 L70.02 86.78 L70.14 86.78 L70.14 86.66 L70.2 86.66 L70.2 86.6 L70.32 86.6 L70.32 86.48 L70.44 86.48
							 L70.44 86.36 L70.5 86.36 L70.5 86.3 L70.62 86.3 L70.62 86.18 L70.74 86.18 L70.74 86.06 L70.8 86.06 L70.8
							 86 L70.92 86 L70.92 85.88 L71.04 85.88 L71.04 85.76 L71.1 85.76 L71.1 85.7 L71.22 85.7 L71.22 85.58
							 L71.34 85.58 L71.34 85.46 L71.4 85.46 L71.4 85.4 L71.52 85.4 L71.52 85.28 L71.64 85.28 L71.64 85.16
							 L71.7 85.16 L71.7 84.98 L71.82 84.98 L71.82 84.86 L71.94 84.86 L71.94 84.8 L72 84.8 L72 84.68 L72.12
							 84.68 L72.12 84.5 L72.24 84.5 L72.24 84.38 L72.3 84.38 L72.3 84.26 L72.42 84.26 L72.42 84.08 L72.54
							 84.08 L72.54 83.96 L72.6 83.96 L72.6 83.9 L72.72 83.9 L72.72 83.78 L72.84 83.78 L72.84 83.6 L72.9 83.6
							 L72.9 83.36 L73.02 83.36 L73.02 83.18 L73.14 83.18 L73.14 83.06 L73.2 83.06 L73.2 82.88 L73.32 82.88
							 L73.32 82.7 L73.44 82.7 L73.44 82.58 L73.5 82.58 L73.5 82.4 L73.62 82.4 L73.62 82.16 L73.74 82.16 L73.74
							 81.98 L73.8 81.98 L73.8 81.86 L73.92 81.86 L73.92 81.56 L74.04 81.56 L74.04 81.38 L74.1 81.38 L74.1
							 81.08 L74.22 81.08 L74.22 80.9 L74.34 80.9 L74.34 80.66 L74.4 80.66 L74.4 80.36 L74.52 80.36 L74.52
							 80.18 L74.64 80.18 L74.64 80 L74.7 80 L74.7 79.58 L74.82 79.58 L74.82 79.28 L74.94 79.28 L74.94 78.86
							 L75 78.86 L75 78.56 L75.12 78.56 L75.12 78.2 L75.24 78.2 L75.24 77.9 L75.3 77.9 L75.3 77.3 L75.42 77.3
							 L75.42 76.7 L75.54 76.7 L75.54 76.16 L75.6 76.16 L75.6 75.38 L75.72 75.38 L75.72 74.06 L75.84 74.06
							 L75.84 71.18 L75.72 71.18 L75.72 69.98 L75.6 69.98 L75.6 69.08 L75.54 69.08 L75.54 68.36 L75.42 68.36
							 L75.42 67.76 L75.3 67.76 L75.3 67.16 L75.24 67.16 L75.24 66.8 L75.12 66.8 L75.12 66.26 L75 66.26 L75
							 65.9 L74.94 65.9 L74.94 65.36 L74.82 65.36 L74.82 65.06 L74.7 65.06 L74.7 64.7 L74.64 64.7 L74.64 64.4
							 L74.52 64.4 L74.52 64.1 L74.4 64.1 L74.4 63.68 L74.34 63.68 L74.34 63.38 L74.22 63.38 L74.22 63.08 L74.1
							 63.08 L74.1 62.78 L74.04 62.78 L74.04 62.6 L73.92 62.6 L73.92 62.3 L73.8 62.3 L73.8 62 L73.74 62 L73.74
							 61.76 L73.62 61.76 L73.62 61.46 L73.5 61.46 L73.5 61.28 L73.44 61.28 L73.44 61.1 L73.32 61.1 L73.32
							 60.8 L73.2 60.8 L73.2 60.56 L73.14 60.56 L73.14 60.38 L73.02 60.38 L73.02 60.2 L72.9 60.2 L72.9 59.96
							 L72.84 59.96 L72.84 59.78 L72.72 59.78 L72.72 59.6 L72.6 59.6 L72.6 59.36 L72.54 59.36 L72.54 59.18
							 L72.42 59.18 L72.42 59.06 L72.3 59.06 L72.3 58.88 L72.24 58.88 L72.24 58.7 L72.12 58.7 L72.12 58.46
							 L72 58.46 L72 58.4 L71.94 58.4 L71.94 58.16 L71.82 58.16 L71.82 57.98 L71.7 57.98 L71.7 57.86 L71.64
							 57.86 L71.64 57.68 L71.52 57.68 L71.52 57.56 L71.4 57.56 L71.4 57.38 L71.34 57.38 L71.34 57.26 L71.22
							 57.26 L71.22 57.2 L71.1 57.2 L71.1 56.96 L71.04 56.96 L71.04 56.9 L70.92 56.9 L70.92 56.78 L70.8 56.78
							 L70.8 56.66 L70.74 56.66 L70.74 56.6 L70.62 56.6 L70.62 56.36 L70.5 56.36 L70.5 56.3 L70.44 56.3 L70.44
							 56.18 L70.32 56.18 L70.32 56.06 L70.2 56.06 L70.2 55.88 L70.14 55.88 L70.14 55.76 L70.02 55.76 L70.02
							 55.7 L69.9 55.7 L69.9 55.58 L69.84 55.58 L69.84 55.46 L69.72 55.46 L69.72 55.4 L69.6 55.4 L69.6 55.28
							 L69.54 55.28 L69.54 55.16 L69.42 55.16 L69.42 55.1 L69.3 55.1 L69.3 54.98 L69.24 54.98 L69.24 54.8 L69.12
							 54.8 L69.12 54.68 L69 54.68 L69 54.56 L68.94 54.56 L68.94 54.5 L68.82 54.5 L68.82 54.38 L68.7 54.38
							 L68.7 54.26 L68.64 54.26 L68.64 54.2 L68.52 54.2 L68.52 54.08 L68.4 54.08 L68.4 53.96 L68.34 53.96 L68.34
							 53.9 L68.22 53.9 L68.22 53.78 L68.04 53.78 L68.04 53.66 L67.92 53.66 L67.92 53.6 L67.8 53.6 L67.8 53.48
							 L67.74 53.48 L67.74 53.36 L67.62 53.36 L67.62 53.3 L67.5 53.3 L67.5 53.18 L67.44 53.18 L67.44 53.06
							 L67.32 53.06 L67.32 53 L67.2 53 L67.2 52.88 L67.14 52.88 L67.14 52.76 L66.9 52.76 L66.9 52.7 L66.84
							 52.7 L66.84 52.58 L66.72 52.58 L66.72 52.46 L66.6 52.46 L66.6 52.4 L66.54 52.4 L66.54 52.28 L66.42 52.28
							 L66.42 52.16 L66.24 52.16 L66.24 52.1 L66.12 52.1 L66.12 51.98 L66 51.98 L66 51.86 L65.94 51.86 L65.94
							 51.8 L65.7 51.8 L65.7 51.68 L65.64 51.68 L65.64 51.56 L65.52 51.56 L65.52 51.5 L65.4 51.5 L65.4 51.38
							 L65.22 51.38 L65.22 51.26 L65.1 51.26 L65.1 51.2 L65.04 51.2 L65.04 51.08 L64.8 51.08 L64.8 50.96 L64.74
							 50.96 L64.74 50.9 L64.62 50.9 L64.62 50.78 L64.44 50.78 L64.44 50.66 L64.32 50.66 L64.32 50.6 L64.14
							 50.6 L64.14 50.48 L64.02 50.48 L64.02 50.36 L63.84 50.36 L63.84 50.3 L63.72 50.3 L63.72 50.18 L63.54
							 50.18 L63.54 50.06 L63.42 50.06 L63.42 50 L63.24 50 L63.24 49.88 L63.12 49.88 L63.12 49.76 L62.94 49.76
							 L62.94 49.7 L62.82 49.7 L62.82 49.58 L62.64 49.58 L62.64 49.46 L62.52 49.46 L62.52 49.4 L62.34 49.4
							 L62.34 49.28 L62.1 49.28 L62.1 49.16 L62.04 49.16 L62.04 49.1 L61.8 49.1 L61.8 48.98 L61.62 48.98 L61.62
							 48.86 L61.44 48.86 L61.44 48.8 L61.32 48.8 L61.32 48.68 L61.14 48.68 L61.14 48.56 L60.9 48.56 L60.9
							 48.5 L60.72 48.5 L60.72 48.38 L60.6 48.38 L60.6 48.26 L60.42 48.26 L60.42 48.2 L60.24 48.2 L60.24 48.08
							 L60 48.08 L60 47.96 L59.82 47.96 L59.82 47.9 L59.64 47.9 L59.64 47.78 L59.4 47.78 L59.4 47.66 L59.22
							 47.66 L59.22 47.6 L59.04 47.6 L59.04 47.48 L58.8 47.48 L58.8 47.36 L58.62 47.36 L58.62 47.3 L58.32 47.3
							 L58.32 47.18 L58.14 47.18 L58.14 47.06 L57.9 47.06 L57.9 47 L57.6 47 L57.6 46.88 L57.42 46.88 L57.42
							 46.76 L57.24 46.76 L57.24 46.7 L57 46.7 L57 46.58 L56.7 46.58 L56.7 46.46 L56.52 46.46 L56.52 46.4 L56.22
							 46.4 L56.22 46.28 L55.92 46.28 L55.92 46.16 L55.62 46.16 L55.62 46.1 L55.44 46.1 L55.44 45.98 L55.14
							 45.98 L55.14 45.86 L54.84 45.86 L54.84 45.8 L54.54 45.8 L54.54 45.68 L54.24 45.68 L54.24 45.56 L53.94
							 45.56 L53.94 45.5 L53.52 45.5 L53.52 45.38 L53.22 45.38 L53.22 45.26 L52.92 45.26 L52.92 45.2 L52.5
							 45.2 L52.5 45.08 L52.2 45.08 L52.2 44.96 L51.84 44.96 L51.84 44.9 L51.3 44.9 L51.3 44.78 L50.94 44.78
							 L50.94 44.66 L50.52 44.66 L50.52 44.6 L50.04 44.6 L50.04 44.48 L49.62 44.48 L49.62 44.36 L49.02 44.36
							 L49.02 44.3 L48.3 44.3 L48.3 44.18 L47.7 44.18 L47.7 44.06 L47.1 44.06 L47.1 44 L46.14 44 L46.14 43.88
							 L45.12 43.88 L45.12 43.76 L43.62 43.76 L43.62 43.7 L39 43.7 L39 43.76 L37.5 43.76 L37.5 43.88 L36.3
							 43.88 L36.3 44 L35.34 44 L35.34 44.06 L34.5 44.06 L34.5 44.18 L33.6 44.18 L33.6 44.3 L32.7 44.3 L32.7
							 44.36 L32.1 44.36 L32.1 44.48 L31.5 44.48 L31.5 44.6 L30.84 44.6 L30.84 44.66 L30.24 44.66 L30.24 44.78
							 L29.64 44.78 L29.64 44.9 L29.1 44.9 L29.1 44.96 L28.62 44.96 L28.62 45.08 L28.2 45.08 L28.2 45.2 L27.72
							 45.2 L27.72 45.26 L27.24 45.26 L27.24 45.38 L26.7 45.38 L26.7 45.5 L26.34 45.5 L26.34 45.56 L25.92 45.56
							 L25.92 45.68 L25.5 45.68 L25.5 45.8 L25.14 45.8 L25.14 45.86 L24.72 45.86 L24.72 45.98 L24.3 45.98 L24.3
							 46.1 L24 46.1 L24 46.16 L23.7 46.16 L23.7 46.28 L23.34 46.28 L23.34 46.4 L23.04 46.4 L23.04 46.46 L22.74
							 46.46 L22.74 46.58 L22.32 46.58 L22.32 46.7 L22.02 46.7 L22.02 46.76 L21.72 46.76 L21.72 46.88 L21.42
							 46.88 L21.42 47 L21.12 47 L21.12 47.06 L20.94 47.06 L20.94 47.18 L20.64 47.18 L20.64 47.3 L20.34 47.3
							 L20.34 47.36 L20.04 47.36 L20.04 47.48 L19.74 47.48 L19.74 47.6 L19.5 47.6 L19.5 47.66 L19.2 47.66 L19.2
							 47.78 L19.02 47.78 L19.02 47.9 L18.84 47.9 L18.84 47.96 L18.54 47.96 L18.54 48.08 L18.3 48.08 L18.3
							 48.2 L18 48.2 L18 48.26 L17.82 48.26 L17.82 48.38 L17.64 48.38 L17.64 48.5 L17.34 48.5 L17.34 48.56
							 L17.1 48.56 L17.1 48.68 L16.92 48.68 L16.92 48.8 L16.74 48.8 L16.74 48.86 L16.5 48.86 L16.5 48.98 L16.32
							 48.98 L16.32 49.1 L16.14 49.1 L16.14 49.16 L15.9 49.16 L15.9 49.28 L15.72 49.28 L15.72 49.4 L15.54 49.4
							 L15.54 49.46 L15.3 49.46 L15.3 49.58 L15.12 49.58 L15.12 49.7 L15 49.7 L15 49.76 L14.82 49.76 L14.82
							 49.88 L14.64 49.88 L14.64 50 L14.4 50 L14.4 50.06 L14.34 50.06 L14.34 50.18 L14.1 50.18 L14.1 50.3 L13.92
							 50.3 L13.92 50.36 L13.74 50.36 L13.74 50.48 L13.62 50.48 L13.62 50.6 L13.44 50.6 L13.44 50.66 L13.32
							 50.66 L13.32 50.78 L13.14 50.78 L13.14 50.9 L13.02 50.9 L13.02 50.96 L12.84 50.96 L12.84 51.08 L12.72
							 51.08 L12.72 51.2 L12.54 51.2 L12.54 51.26 L12.42 51.26 L12.42 51.38 L12.24 51.38 L12.24 51.5 L12.12
							 51.5 L12.12 51.56 L12 51.56 L12 51.68 L11.82 51.68 L11.82 51.8 L11.7 51.8 L11.7 51.86 L11.64 51.86 L11.64
							 51.98 L11.4 51.98 L11.4 52.1 L11.34 52.1 L11.34 52.16 L11.22 52.16 L11.22 52.28 L11.1 52.28 L11.1 52.4
							 L11.04 52.4 L11.04 52.46 L10.8 52.46 L10.8 52.58 L10.74 52.58 L10.74 52.7 L10.62 52.7 L10.62 52.76 L10.5
							 52.76 L10.5 52.88 L10.32 52.88 L10.32 53 L10.2 53 L10.2 53.06 L10.14 53.06 L10.14 53.18 L10.02 53.18
							 L10.02 53.3 L9.9 53.3 L9.9 53.36 L9.84 53.36 L9.84 53.48 L9.72 53.48 L9.72 53.6 L9.6 53.6 L9.6 53.66
							 L9.54 53.66 L9.54 53.78 L9.42 53.78 L9.42 53.9 L9.3 53.9 L9.3 53.96 L9.24 53.96 L9.24 54.08 L9.12 54.08
							 L9.12 54.2 L9 54.2 L9 54.38 L8.94 54.38 L8.94 54.5 L8.82 54.5 L8.82 54.56 L8.7 54.56 L8.7 54.68 L8.64
							 54.68 L8.64 54.86 L8.52 54.86 L8.52 54.98 L8.4 54.98 L8.4 55.1 L8.34 55.1 L8.34 55.28 L8.22 55.28 L8.22
							 55.4 L8.1 55.4 L8.1 55.46 L8.04 55.46 L8.04 55.58 L7.92 55.58 L7.92 55.76 L7.8 55.76 L7.8 56 L7.74 56
							 L7.74 56.18 L7.62 56.18 L7.62 56.3 L7.5 56.3 L7.5 56.48 L7.44 56.48 L7.44 56.66 L7.32 56.66 L7.32 56.78
							 L7.2 56.78 L7.2 56.96 L7.14 56.96 L7.14 57.2 L7.02 57.2 L7.02 57.38 L6.9 57.38 L6.9 57.68 L6.84 57.68
							 L6.84 57.86 L6.72 57.86 L6.72 58.1 L6.6 58.1 L6.6 58.4 L6.54 58.4 L6.54 58.76 L6.42 58.76 L6.42 59.06
							 L6.3 59.06 L6.3 59.48 L6.24 59.48 L6.24 59.96 L6.12 59.96 L6.12 60.5 L6 60.5 L6 60.98 L5.94 60.98 L5.94
							 61.76 L5.82 61.76 L5.82 63.56 L5.7 63.56 L5.7 64.16 L5.82 64.16 L5.82 65 L5.94 65 L5.94 65.78 L6 65.78
							 L6 66.5 L6.12 66.5 L6.12 66.98 L6.24 66.98 L6.24 67.28 L6.3 67.28 L6.3 67.58 L6.42 67.58 L6.42 67.88
							 L6.54 67.88 L6.54 68.18 L6.6 68.18 L6.6 68.48 L6.72 68.48 L6.72 68.78 L6.84 68.78 L6.84 69.08 L6.9 69.08
							 L6.9 69.38 L7.02 69.38 L7.02 69.56 L7.14 69.56 L7.14 69.8 L7.2 69.8 L7.2 69.98 L7.32 69.98 L7.32 70.16
							 L7.44 70.16 L7.44 70.4 L7.5 70.4 L7.5 70.58 L7.62 70.58 L7.62 70.76 L7.74 70.76 L7.74 71 L7.8 71 L7.8
							 71.06 L7.92 71.06 L7.92 71.3 L8.04 71.3 L8.04 71.48 L8.1 71.48 L8.1 71.66 L8.22 71.66 L8.22 71.9 L8.34
							 71.9 L8.34 72.08 L8.4 72.08 L8.4 72.2 L8.52 72.2 L8.52 72.38 L8.64 72.38 L8.64 72.5 L8.7 72.5 L8.7 72.56
							 L8.82 72.56 L8.82 72.8 L8.94 72.8 L8.94 72.86 L9 72.86 L9 72.98 L9.12 72.98 L9.12 73.16 L9.24 73.16
							 L9.24 73.28 L9.3 73.28 L9.3 73.46 L9.42 73.46 L9.42 73.58 L9.54 73.58 L9.54 73.7 L9.6 73.7 L9.6 73.88
							 L9.72 73.88 L9.72 74 L9.84 74 L9.84 74.06 L9.9 74.06 L9.9 74.3 L10.02 74.3 L10.02 74.36 L10.14 74.36
							 L10.14 74.48 L10.2 74.48 L10.2 74.66 L10.32 74.66 L10.32 74.78 L10.44 74.78 L10.44 74.9 L10.5 74.9 L10.5
							 74.96 L10.62 74.96 L10.62 75.08 L10.74 75.08 L10.74 75.2 L10.8 75.2 L10.8 75.26 L10.92 75.26 L10.92
							 75.38 L11.04 75.38 L11.04 75.5 L11.1 75.5 L11.1 75.56 L11.22 75.56 L11.22 75.68 L11.34 75.68 L11.34
							 75.8 L11.4 75.8 L11.4 75.86 L11.52 75.86 L11.52 75.98 L11.64 75.98 L11.64 76.16 L11.7 76.16 L11.7 76.28
							 L11.82 76.28 L11.82 76.4 L11.94 76.4 L11.94 76.46 L12 76.46 L12 76.58 L12.12 76.58 L12.12 76.7 L12.24
							 76.7 L12.24 76.76 L12.3 76.76 L12.3 76.88 L12.42 76.88 L12.42 77 L12.54 77 L12.54 77.06 L12.6 77.06
							 L12.6 77.18 L12.72 77.18 L12.72 77.3 L12.84 77.3 L12.84 77.36 L12.9 77.36 L12.9 77.48 L13.02 77.48 L13.02
							 77.6 L13.2 77.6 L13.2 77.66 L13.32 77.66 L13.32 77.78 L13.44 77.78 L13.44 77.9 L13.5 77.9 L13.5 77.96
							 L13.62 77.96 L13.62 78.08 L13.74 78.08 L13.74 78.2 L13.8 78.2 L13.8 78.26 L13.92 78.26 L13.92 78.38
							 L14.1 78.38 L14.1 78.5 L14.22 78.5 L14.22 78.56 L14.34 78.56 L14.34 78.68 L14.4 78.68 L14.4 78.8 L14.52
							 78.8 L14.52 78.86 L14.64 78.86 L14.64 78.98 L14.7 78.98 L14.7 79.1 L14.94 79.1 L14.94 79.16 L15 79.16
							 L15 79.28 L15.12 79.28 L15.12 79.4 L15.24 79.4 L15.24 79.46 L15.42 79.46 L15.42 79.58 L15.54 79.58 L15.54
							 79.7 L15.6 79.7 L15.6 79.76 L15.72 79.76 L15.72 79.88 L15.9 79.88 L15.9 80 L16.02 80 L16.02 80.06 L16.2
							 80.06 L16.2 80.18 L16.32 80.18 L16.32 80.3 L16.44 80.3 L16.44 80.36 L16.62 80.36 L16.62 80.48 L16.74
							 80.48 L16.74 80.6 L16.92 80.6 L16.92 80.66 L17.04 80.66 L17.04 80.78 L17.1 80.78 L17.1 80.9 L17.34 80.9
							 L17.34 80.96 L17.4 80.96 L17.4 81.08 L17.52 81.08 L17.52 80.96 L17.64 80.96 L17.64 80.9 L17.7 80.9 L17.7
							 80.66 L17.82 80.66 L17.82 80.6 L17.94 80.6 L17.94 80.36 L18 80.36 L18 80.3 L18.12 80.3 L18.12 80.06
							 L18.24 80.06 L18.24 80 L18.3 80 L18.3 79.76 L18.42 79.76 L18.42 79.7 L18.54 79.7 L18.54 79.46 L18.6
							 79.46 L18.6 79.4 L18.72 79.4 L18.72 79.16 L18.84 79.16 L18.84 79.1 L18.9 79.1 L18.9 78.86 L19.02 78.86
							 L19.02 78.8 L19.14 78.8 L19.14 78.56 L19.2 78.56 L19.2 78.5 L19.32 78.5 L19.32 78.26 L19.44 78.26 L19.44
							 78.2 L19.5 78.2 L19.5 77.96 L19.62 77.96 L19.62 77.9 L19.74 77.9 L19.74 77.66 L19.8 77.66 L19.8 77.6
							 L19.92 77.6 L19.92 77.36 L20.04 77.36 L20.04 77.3 L19.92 77.3 L19.92 77.18 L19.8 77.18 L19.8 77.06 L19.62
							 77.06 L19.62 77 L19.5 77 L19.5 76.88 L19.32 76.88 L19.32 76.76 L19.2 76.76 L19.2 76.7 L19.02 76.7 L19.02
							 76.58 L18.9 76.58 L18.9 76.46 L18.72 76.46 L18.72 76.4 L18.6 76.4 L18.6 76.28 L18.42 76.28 L18.42 76.16
							 L18.3 76.16 L18.3 76.1 L18.24 76.1 L18.24 75.98 L18 75.98 L18 75.86 L17.94 75.86 L17.94 75.8 L17.82
							 75.8 L17.82 75.68 L17.64 75.68 L17.64 75.56 L17.52 75.56 L17.52 75.5 L17.4 75.5 L17.4 75.38 L17.34 75.38
							 L17.34 75.26 L17.1 75.26 L17.1 75.2 L17.04 75.2 L17.04 75.08 L16.92 75.08 L16.92 74.96 L16.8 74.96 L16.8
							 74.9 L16.74 74.9 L16.74 74.78 L16.62 74.78 L16.62 74.66 L16.5 74.66 L16.5 74.6 L16.44 74.6 L16.44 74.48
							 L16.32 74.48 L16.32 74.36 L16.2 74.36 L16.2 74.3 L16.14 74.3 L16.14 74.18 L16.02 74.18 L16.02 74.06
							 L15.9 74.06 L15.9 74 L15.84 74 L15.84 73.88 L15.72 73.88 L15.72 73.7 L15.6 73.7 L15.6 73.58 L15.54 73.58
							 L15.54 73.46 L15.42 73.46 L15.42 73.4 L15.3 73.4 L15.3 73.16 L15.24 73.16 L15.24 73.1 L15.12 73.1 L15.12
							 72.98 L15 72.98 L15 72.8 L14.94 72.8 L14.94 72.68 L14.82 72.68 L14.82 72.5 L14.7 72.5 L14.7 72.38 L14.64
							 72.38 L14.64 72.2 L14.52 72.2 L14.52 71.96 L14.4 71.96 L14.4 71.9 L14.34 71.9 L14.34 71.66 L14.22 71.66
							 L14.22 71.48 L14.1 71.48 L14.1 71.3 L14.04 71.3 L14.04 71.06 L13.92 71.06 L13.92 70.88 L13.8 70.88 L13.8
							 70.7 L13.74 70.7 L13.74 70.46 L13.62 70.46 L13.62 70.16 L13.5 70.16 L13.5 69.86 L13.44 69.86 L13.44
							 69.68 L13.32 69.68 L13.32 69.38 L13.2 69.38 L13.2 69.08 L13.14 69.08 L13.14 68.78 L13.02 68.78 L13.02
							 68.36 L12.9 68.36 L12.9 67.88 L12.84 67.88 L12.84 67.4 L12.72 67.4 L12.72 66.8 L12.6 66.8 L12.6 65.66
							 L12.54 65.66 L12.54 64.7 L12.6 64.7 L12.6 63.56 L12.72 63.56 L12.72 62.78 L12.84 62.78 L12.84 62.36
							 L12.9 62.36 L12.9 61.88 L13.02 61.88 L13.02 61.46 L13.14 61.46 L13.14 61.16 L13.2 61.16 L13.2 60.86
							 L13.32 60.86 L13.32 60.56 L13.44 60.56 L13.44 60.26 L13.5 60.26 L13.5 60.08 L13.62 60.08 L13.62 59.9
							 L13.74 59.9 L13.74 59.6 L13.8 59.6 L13.8 59.36 L13.92 59.36 L13.92 59.18 L14.04 59.18 L14.04 59 L14.1
							 59 L14.1 58.76 L14.22 58.76 L14.22 58.7 L14.34 58.7 L14.34 58.46 L14.4 58.46 L14.4 58.28 L14.52 58.28
							 L14.52 58.1 L14.64 58.1 L14.64 57.98 L14.7 57.98 L14.7 57.8 L14.82 57.8 L14.82 57.68 L14.94 57.68 L14.94
							 57.5 L15 57.5 L15 57.38 L15.12 57.38 L15.12 57.26 L15.24 57.26 L15.24 57.08 L15.3 57.08 L15.3 56.96
							 L15.42 56.96 L15.42 56.9 L15.54 56.9 L15.54 56.66 L15.6 56.66 L15.6 56.6 L15.72 56.6 L15.72 56.48 L15.84
							 56.48 L15.84 56.36 L15.9 56.36 L15.9 56.3 L16.02 56.3 L16.02 56.18 L16.14 56.18 L16.14 56.06 L16.2 56.06
							 L16.2 56 L16.32 56 L16.32 55.88 L16.44 55.88 L16.44 55.7 L16.62 55.7 L16.62 55.58 L16.74 55.58 L16.74
							 55.46 L16.8 55.46 L16.8 55.4 L16.92 55.4 L16.92 55.28 L17.04 55.28 L17.04 55.16 L17.1 55.16 L17.1 55.1
							 L17.22 55.1 L17.22 54.98 L17.34 54.98 L17.34 54.86 L17.52 54.86 L17.52 54.8 L17.64 54.8 L17.64 54.68
							 L17.7 54.68 L17.7 54.56 L17.82 54.56 L17.82 54.5 L18 54.5 L18 54.38 L18.12 54.38 L18.12 54.26 L18.24
							 54.26 L18.24 54.2 L18.42 54.2 L18.42 54.08 L18.6 54.08 L18.6 53.96 L18.72 53.96 L18.72 53.9 L18.9 53.9
							 L18.9 53.78 L19.02 53.78 L19.02 53.66 L19.2 53.66 L19.2 53.6 L19.44 53.6 L19.44 53.48 L19.62 53.48 L19.62
							 53.36 L19.8 53.36 L19.8 53.3 L19.92 53.3 L19.92 53.18 L20.1 53.18 L20.1 53.06 L20.4 53.06 L20.4 53 L20.64
							 53 L20.64 52.88 L20.82 52.88 L20.82 52.76 L21.12 52.76 L21.12 52.7 L21.3 52.7 L21.3 52.58 L21.72 52.58
							 L21.72 52.46 L22.02 52.46 L22.02 52.4 L22.32 52.4 L22.32 52.28 L22.74 52.28 L22.74 52.16 L23.1 52.16
							 L23.1 52.1 L23.64 52.1 L23.64 51.98 L24.42 51.98 L24.42 51.86 L27.54 51.86 L27.54 51.98 L28.14 51.98
							 L28.14 52.1 L28.74 52.1 L28.74 52.16 L29.1 52.16 L29.1 52.28 L29.4 52.28 L29.4 52.4 L29.7 52.4 L29.7
							 52.46 L30 52.46 L30 52.58 L30.3 52.58 L30.3 52.7 L30.72 52.7 L30.72 52.76 L31.02 52.76 L31.02 52.88
							 L31.2 52.88 L31.2 53 L31.5 53 L31.5 53.06 L31.74 53.06 L31.74 53.18 L31.92 53.18 L31.92 53.3 L32.1 53.3
							 L32.1 53.36 L32.34 53.36 L32.34 53.48 L32.4 53.48 L32.4 53.6 L32.64 53.6 L32.64 53.66 L32.82 53.66 L32.82
							 53.78 L32.94 53.78 L32.94 53.9 L33.12 53.9 L33.12 53.96 L33.24 53.96 L33.24 54.08 L33.42 54.08 L33.42
							 54.2 L33.6 54.2 L33.6 54.26 L33.72 54.26 L33.72 54.38 L33.84 54.38 L33.84 54.5 L34.02 54.5 L34.02 54.56
							 L34.14 54.56 L34.14 54.68 L34.2 54.68 L34.2 54.8 L34.32 54.8 L34.32 54.86 L34.5 54.86 L34.5 54.98 L34.62
							 54.98 L34.62 55.1 L34.74 55.1 L34.74 55.16 L34.8 55.16 L34.8 55.28 L34.92 55.28 L34.92 55.4 L35.04 55.4
							 L35.04 55.46 L35.1 55.46 L35.1 55.58 L35.22 55.58 L35.22 55.7 L35.4 55.7 L35.4 55.76 L35.52 55.76 L35.52
							 55.88 L35.64 55.88 L35.64 56.06 L35.7 56.06 L35.7 56.18 L35.82 56.18 L35.82 56.3 L35.94 56.3 L35.94
							 56.36 L36 56.36 L36 56.48 L36.12 56.48 L36.12 56.6 L36.24 56.6 L36.24 56.66 L36.3 56.66 L36.3 56.9 L36.42
							 56.9 L36.42 56.96 L36.54 56.96 L36.54 57.08 L36.6 57.08 L36.6 57.26 L36.72 57.26 L36.72 57.38 L36.84
							 57.38 L36.84 57.56 L36.9 57.56 L36.9 57.68 L37.02 57.68 L37.02 57.8 L37.14 57.8 L37.14 57.98 L37.2 57.98
							 L37.2 58.16 L37.32 58.16 L37.32 58.28 L37.44 58.28 L37.44 58.46 L37.5 58.46 L37.5 58.7 L37.62 58.7 L37.62
							 58.76 L37.74 58.76 L37.74 59 L37.8 59 L37.8 59.18 L37.92 59.18 L37.92 59.36 L38.04 59.36 L38.04 59.6
							 L38.1 59.6 L38.1 59.9 L38.22 59.9 L38.22 60.08 L38.34 60.08 L38.34 60.26 L38.4 60.26 L38.4 60.56 L38.52
							 60.56 L38.52 60.86 L38.64 60.86 L38.64 61.28 L38.7 61.28 L38.7 61.58 L38.82 61.58 L38.82 62 L38.94 62
							 L38.94 62.36 L39 62.36 L39 63.08 L39.12 63.08 L39.12 63.98 L39.24 63.98 L39.24 64.88 L39.3 64.88 L39.3
							 65.06 L39.24 65.06 L39.24 66.38 L39.12 66.38 L39.12 67.46 L39 67.46 L39 67.88 L38.94 67.88 L38.94 68.36
							 L38.82 68.36 L38.82 68.78 L38.7 68.78 L38.7 69.2 L38.64 69.2 L38.64 69.5 L38.52 69.5 L38.52 69.68 L38.64
							 69.68 L38.64 69.8 L38.94 69.8 L38.94 69.86 L39.12 69.86 L39.12 69.98 L39.42 69.98 L39.42 70.1 L39.6
							 70.1 L39.6 70.16 L39.9 70.16 L39.9 70.28 L40.2 70.28 L40.2 70.4 L40.5 70.4 L40.5 70.46 L40.8 70.46 L40.8
							 70.58 L41.1 70.58 L41.1 70.7 L41.52 70.7 L41.52 70.76 L41.82 70.76 L41.82 70.88 L42.12 70.88 L42.12
							 71 L42.54 71 L42.54 71.06 L42.9 71.06 L42.9 71.18 L43.44 71.18 L43.44 71.3 L43.8 71.3 L43.8 71.36 L44.22
							 71.36 L44.22 71.48 L44.7 71.48 L44.7 71.6 L45.24 71.6 L45.24 71.66 L45.84 71.66 L45.84 71.78 L46.44
							 71.78 L46.44 71.9 L47.04 71.9 L47.04 71.96 L47.64 71.96 L47.64 72.08 L48.42 72.08 L48.42 72.2 L49.32
							 72.2 L49.32 72.26 L50.1 72.26 L50.1 72.38 L51.3 72.38 L51.3 72.5 L52.74 72.5 L52.74 72.56 L55.44 72.56
							 L55.44 72.68 L58.2 72.68 L58.2 72.56 L59.7 72.56 L59.7 72.2 L59.64 72.2 L59.64 71.18 L59.7 71.18 L59.7
							 69.26 L59.82 69.26 L59.82 68.3 L59.94 68.3 L59.94 67.4 L60 67.4 L60 66.86 L60.12 66.86 L60.12 66.38
							 L60.24 66.38 L60.24 65.9 L60.3 65.9 L60.3 65.36 L60.42 65.36 L60.42 65.06 L60.54 65.06 L60.54 64.7 L60.6
							 64.7 L60.6 64.4 L60.72 64.4 L60.72 64.1 L60.84 64.1 L60.84 63.68 L60.9 63.68 L60.9 63.5 L61.02 63.5
							 L61.02 63.26 L61.14 63.26 L61.14 63.08 L61.2 63.08 L61.2 62.78 L61.32 62.78 L61.32 62.6 L61.44 62.6
							 L61.44 62.36 L61.5 62.36 L61.5 62.18 L61.62 62.18 L61.62 62 L61.74 62 L61.74 61.88 L61.8 61.88 L61.8
							 61.76 L61.92 61.76 L61.92 61.58 L62.04 61.58 L62.04 61.46 L62.1 61.46 L62.1 61.28 L62.22 61.28 L62.22
							 61.16 L62.34 61.16 L62.34 61.1 L62.4 61.1 L62.4 60.98 L62.52 60.98 L62.52 60.86 L62.64 60.86 L62.64
							 60.8 L62.7 60.8 L62.7 60.68 L62.82 60.68 L62.82 60.56 L63 60.56 L63 60.5 L63.12 60.5 L63.12 60.38 L63.24
							 60.38 L63.24 60.26 L63.54 60.26 L63.54 60.2 L63.84 60.2 L63.84 60.08 L64.62 60.08 L64.62 60.2 L64.92
							 60.2 L64.92 60.26 L65.22 60.26 L65.22 60.38 L65.34 60.38 L65.34 60.5 L65.4 60.5 L65.4 60.56 L65.64 60.56
							 L65.64 60.68 L65.7 60.68 L65.7 60.8 L65.82 60.8 L65.82 60.86 L66 60.86 L66 60.98 L66.12 60.98 L66.12
							 61.1 L66.24 61.1 L66.24 61.28 L66.3 61.28 L66.3 61.4 L66.42 61.4 L66.42 61.46 L66.54 61.46 L66.54 61.7
							 L66.6 61.7 L66.6 61.76 L66.72 61.76 L66.72 61.88 L66.84 61.88 L66.84 62.06 L66.9 62.06 L66.9 62.3 L67.02
							 62.3 L67.02 62.48 L67.14 62.48 L67.14 62.66 L67.2 62.66 L67.2 62.9 L67.32 62.9 L67.32 63.08 L67.44 63.08
							 L67.44 63.26 L67.5 63.26 L67.5 63.5 L67.62 63.5 L67.62 63.68 L67.74 63.68 L67.74 63.98 L67.8 63.98 L67.8
							 64.28 L67.92 64.28 L67.92 64.58 L68.04 64.58 L68.04 64.88 L68.1 64.88 L68.1 65.18 L68.22 65.18 L68.22
							 65.6 L68.34 65.6 L68.34 65.96 L68.4 65.96 L68.4 66.38 L68.52 66.38 L68.52 66.8 L68.64 66.8 L68.64 67.28
							 L68.7 67.28 L68.7 68 L68.82 68 L68.82 68.66 L68.94 68.66 L68.94 69.38 L69 69.38 L69 70.58 L69.12 70.58
							 L69.12 74.48 L69 74.48 L69 75.5 L68.94 75.5 L68.94 76.46 L68.82 76.46 L68.82 77.06 L68.7 77.06 L68.7
							 77.6 L68.64 77.6 L68.64 78.08 L68.52 78.08 L68.52 78.56 L68.4 78.56 L68.4 78.98 L68.34 78.98 L68.34
							 79.28 L68.22 79.28 L68.22 79.7 L68.1 79.7 L68.1 80 L68.04 80 L68.04 80.3 L67.92 80.3 L67.92 80.6 L67.8
							 80.6 L67.8 80.78 L67.74 80.78 L67.74 81.08 L67.62 81.08 L67.62 81.26 L67.5 81.26 L67.5 81.5 L67.44 81.5
							 L67.44 81.68 L67.32 81.68 L67.32 81.86 L67.2 81.86 L67.2 82.1 L67.14 82.1 L67.14 82.16 L67.02 82.16
							 L67.02 82.4 L66.9 82.4 L66.9 82.46 L66.84 82.46 L66.84 82.7 L66.72 82.7 L66.72 82.76 L66.6 82.76 L66.6
							 83 L66.54 83 L66.54 83.06 L66.42 83.06 L66.42 83.18 L66.3 83.18 L66.3 83.3 L66.24 83.3 L66.24 83.36
							 L66 83.36 L66 83.48 L65.94 83.48 L65.94 83.6 L65.82 83.6 L65.82 83.66 L65.7 83.66 L65.7 83.78 L65.52
							 83.78 L65.52 83.9 L65.22 83.9 L65.22 83.96 L64.92 83.96 L64.92 84.08 L64.32 84.08 L64.32 83.96 L63.9
							 83.96 L63.9 83.9 L63.72 83.9 L63.72 83.78 L63.54 83.78 L63.54 83.66 L63.3 83.66 L63.3 83.6 L63.24 83.6
							 L63.24 83.48 L63 83.48 L63 83.36 L62.94 83.36 L62.94 83.3 L62.82 83.3 L62.82 83.18 L62.7 83.18 L62.7
							 83.06 L62.64 83.06 L62.64 83 L62.52 83 L62.52 82.76 L62.4 82.76 L62.4 82.7 L62.34 82.7 L62.34 82.58
							 L62.22 82.58 L62.22 82.46 L62.1 82.46 L62.1 82.28 L62.04 82.28 L62.04 82.1 L61.92 82.1 L61.92 81.98
							 L61.8 81.98 L61.8 81.8 L61.74 81.8 L61.74 81.56 L61.62 81.56 L61.62 81.38 L61.5 81.38 L61.5 81.2 L61.44
							 81.2 L61.44 80.96 L61.32 80.96 L61.32 80.78 L61.2 80.78 L61.2 80.6 L61.14 80.6 L61.14 80.3 L61.02 80.3
							 L61.02 80 L60.9 80 L60.9 79.7 L60.84 79.7 L60.84 79.46 L60.72 79.46 L60.72 79.1 L60.6 79.1 L60.6 78.8
							 L60.54 78.8 L60.54 78.38 L60.42 78.38 L60.42 78.2 L59.94 78.2 L59.94 78.26 L53.22 78.26 L53.22 78.2
							 L51.72 78.2 L51.72 78.08 L50.34 78.08 L50.34 77.96 L49.2 77.96 L49.2 77.9 L48.42 77.9 L48.42 77.78 L47.64
							 77.78 L47.64 77.66 L46.8 77.66 L46.8 77.6 L46.14 77.6 L46.14 77.48 L45.54 77.48 L45.54 77.36 L44.94
							 77.36 L44.94 77.3 L44.4 77.3 L44.4 77.18 L43.8 77.18 L43.8 77.06 L43.32 77.06 L43.32 77 L42.84 77 L42.84
							 76.88 L42.42 76.88 L42.42 76.76 L42 76.76 L42 76.7 L41.64 76.7 L41.64 76.58 L41.22 76.58 L41.22 76.46
							 L40.8 76.46 L40.8 76.4 L40.44 76.4 L40.44 76.28 L40.02 76.28 L40.02 76.16 L39.72 76.16 L39.72 76.1 L39.42
							 76.1 L39.42 75.98 L39.12 75.98 L39.12 75.86 L38.82 75.86 L38.82 75.8 L38.52 75.8 L38.52 75.68 L38.22
							 75.68 L38.22 75.56 L37.92 75.56 L37.92 75.5 L37.62 75.5 L37.62 75.38 L37.32 75.38 L37.32 75.26 L37.14
							 75.26 L37.14 75.2 L36.9 75.2 L36.9 75.08 L36.6 75.08 L36.6 74.96 L36.42 74.96 L36.42 74.9 L36.12 74.9
							 L36.12 74.78 L35.94 74.78 L35.94 74.66 L35.7 74.66 L35.7 74.6 L35.52 74.6 L35.52 74.48 L35.34 74.48
							 L35.34 74.66 L35.1 74.66 L35.1 74.78 L35.04 74.78 L35.04 74.9 L34.92 74.9 L34.92 74.96 L34.8 74.96 L34.8
							 75.08 L34.74 75.08 L34.74 75.2 L34.62 75.2 L34.62 75.26 L34.5 75.26 L34.5 75.38 L34.44 75.38 L34.44
							 75.5 L34.2 75.5 L34.2 75.56 L34.14 75.56 L34.14 75.68 L34.02 75.68 L34.02 75.8 L33.84 75.8 L33.84 75.86
							 L33.72 75.86 L33.72 75.98 L33.6 75.98 L33.6 76.1 L33.42 76.1 L33.42 76.16 L33.3 76.16 L33.3 76.28 L33.12
							 76.28 L33.12 76.4 L33 76.4 L33 76.46 L32.82 76.46 L32.82 76.58 L32.64 76.58 L32.64 76.7 L32.52 76.7
							 L32.52 76.76 L32.34 76.76 L32.34 76.88 L32.1 76.88 L32.1 77 L31.92 77 L31.92 77.06 L31.74 77.06 L31.74
							 77.18 L31.5 77.18 L31.5 77.3 L31.32 77.3 L31.32 77.36 L31.14 77.36 L31.14 77.48 L30.84 77.48 L30.84
							 77.6 L30.54 77.6 L30.54 77.66 L30.3 77.66 L30.3 77.78 L30 77.78 L30 77.9 L29.7 77.9 L29.7 77.96 L29.34
							 77.96 L29.34 78.08 L28.92 78.08 L28.92 78.2 L28.5 78.2 L28.5 78.26 L27.84 78.26 L27.84 78.38 L27 78.38
							 L27 78.5 L25.62 78.5 L25.62 78.8 L25.5 78.8 L25.5 79.1 L25.44 79.1 L25.44 79.4 L25.32 79.4 L25.32 79.58
							 L25.2 79.58 L25.2 79.76 L25.14 79.76 L25.14 80 L25.02 80 L25.02 80.18 L24.9 80.18 L24.9 80.3 L24.84
							 80.3 L24.84 80.48 L24.72 80.48 L24.72 80.6 L24.6 80.6 L24.6 80.78 L24.54 80.78 L24.54 80.9 L24.42 80.9
							 L24.42 81.08 L24.3 81.08 L24.3 81.2 L24.24 81.2 L24.24 81.38 L24.12 81.38 L24.12 81.5 L24 81.5 L24 81.68
							 L23.94 81.68 L23.94 81.8 L23.82 81.8 L23.82 81.98 L23.7 81.98 L23.7 82.1 L23.64 82.1 L23.64 82.28 L23.52
							 82.28 L23.52 82.4 L23.4 82.4 L23.4 82.58 L23.34 82.58 L23.34 82.7 L23.22 82.7 L23.22 82.88 L23.1 82.88
							 L23.1 83 L23.04 83 L23.04 83.18 L22.92 83.18 L22.92 83.3 L22.8 83.3 L22.8 83.48 L22.74 83.48 L22.74
							 83.6 L22.62 83.6 L22.62 83.78 L22.5 83.78 L22.5 83.9 L22.44 83.9 L22.44 84.08 L22.32 84.08 L22.32 84.2
							 L22.2 84.2 L22.2 84.38 L22.14 84.38 L22.14 84.5 L22.02 84.5 L22.02 84.68 L21.9 84.68 L21.9 84.8 L21.84
							 84.8 L21.84 84.86 L21.72 84.86 L21.72 84.98 L21.6 84.98 L21.6 85.1 L21.54 85.1 L21.54 85.28 L21.3 85.28
							 L21.3 85.4 L21.24 85.4 L21.24 85.46 L21.12 85.46 L21.12 85.58 L21 85.58 L21 85.7 L20.82 85.7 L20.82
							 85.76 L20.7 85.76 L20.7 85.88 L20.64 85.88 L20.64 86 L20.4 86 L20.4 86.06 L20.22 86.06 L20.22 86.18
							 L20.04 86.18 L20.04 86.3 L19.8 86.3 L19.8 86.36 L19.62 86.36 L19.62 86.48 L19.32 86.48 L19.32 86.6 L19.02
							 86.6 L19.02 86.66 L18.6 86.66 L18.6 86.78 L16.5 86.78 L16.5 86.66 L16.2 86.66 L16.2 86.6 L15.84 86.6
							 L15.84 86.48 L15.54 86.48 L15.54 86.36 L15.3 86.36 L15.3 86.3 L15.12 86.3 L15.12 86.18 L14.82 86.18
							 L14.82 86.06 L14.7 86.06 L14.7 86 L14.52 86 L14.52 85.88 L14.4 85.88 L14.4 85.76 L14.22 85.76 L14.22
							 85.7 L14.1 85.7 L14.1 85.58 L13.92 85.58 L13.92 85.46 L13.8 85.46 L13.8 85.4 L13.62 85.4 L13.62 85.28
							 L13.5 85.28 L13.5 85.16 L13.44 85.16 L13.44 85.1 L13.2 85.1 L13.2 84.98 L13.14 84.98 L13.14 84.86 L12.9
							 84.86 L12.9 84.8 L12.84 84.8 L12.84 84.68 L12.72 84.68 L12.72 84.56 L12.54 84.56 L12.54 84.5 L12.42
							 84.5 L12.42 84.38 L12.24 84.38 L12.24 84.26 L12.12 84.26 L12.12 84.2 L12 84.2 L12 84.08 L11.94 84.08
							 L11.94 83.96 L11.7 83.96 L11.7 83.9 L11.64 83.9 L11.64 83.78 L11.52 83.78 L11.52 83.66 L11.4 83.66 L11.4
							 83.6 L11.22 83.6 L11.22 83.48 L11.1 83.48 L11.1 83.36 L11.04 83.36 L11.04 83.3 L10.92 83.3 L10.92 83.18
							 L10.8 83.18 L10.8 83.06 L10.74 83.06 L10.74 83 L10.5 83 L10.5 82.88 L10.44 82.88 L10.44 82.76 L10.32
							 82.76 L10.32 82.7 L10.2 82.7 L10.2 82.58 L10.14 82.58 L10.14 82.46 L10.02 82.46 L10.02 82.4 L9.9 82.4
							 L9.9 82.28 L9.84 82.28 L9.84 82.16 L9.72 82.16 L9.72 82.1 L9.54 82.1 L9.54 81.98 L9.42 81.98 L9.42 81.86
							 L9.3 81.86 L9.3 81.8 L9.24 81.8 L9.24 81.68 L9.12 81.68 L9.12 81.56 L9 81.56 L9 81.5 L8.94 81.5 L8.94
							 81.38 L8.82 81.38 L8.82 81.26 L8.64 81.26 L8.64 81.2 L8.52 81.2 L8.52 81.08 L8.4 81.08 L8.4 80.96 L8.34
							 80.96 L8.34 80.9 L8.22 80.9 L8.22 80.66 L8.1 80.66 L8.1 80.6 L8.04 80.6 L8.04 80.48 L7.92 80.48 L7.92
							 80.36 L7.8 80.36 L7.8 80.3 L7.74 80.3 L7.74 80.18 L7.62 80.18 L7.62 80.06 L7.5 80.06 L7.5 80 L7.44 80
							 L7.44 79.88 L7.32 79.88 L7.32 79.76 L7.2 79.76 L7.2 79.7 L7.14 79.7 L7.14 79.58 L7.02 79.58 L7.02 79.4
							 L6.9 79.4 L6.9 79.28 L6.84 79.28 L6.84 79.16 L6.72 79.16 L6.72 79.1 L6.6 79.1 L6.6 78.98 L6.54 78.98
							 L6.54 78.86 L6.42 78.86 L6.42 78.8 L6.3 78.8 L6.3 78.68 L6.24 78.68 L6.24 78.56 L6.12 78.56 L6.12 78.5
							 L6 78.5 L6 78.38 L5.94 78.38 L5.94 78.26 L5.82 78.26 L5.82 78.08 L5.7 78.08 L5.7 77.96 L5.64 77.96 L5.64
							 77.9 L5.52 77.9 L5.52 77.78 L5.4 77.78 L5.4 77.66 L5.34 77.66 L5.34 77.48 L5.22 77.48 L5.22 77.36 L5.1
							 77.36 L5.1 77.18 L5.04 77.18 L5.04 77.06 L4.92 77.06 L4.92 76.88 L4.8 76.88 L4.8 76.76 L4.74 76.76 L4.74
							 76.7 L4.62 76.7 L4.62 76.46 L4.5 76.46 L4.5 76.4 L4.44 76.4 L4.44 76.16 L4.32 76.16 L4.32 76.1 L4.2
							 76.1 L4.2 75.98 L4.14 75.98 L4.14 75.8 L4.02 75.8 L4.02 75.68 L3.9 75.68 L3.9 75.5 L3.84 75.5 L3.84
							 75.38 L3.72 75.38 L3.72 75.2 L3.6 75.2 L3.6 75.08 L3.54 75.08 L3.54 74.96 L3.42 74.96 L3.42 74.78 L3.3
							 74.78 L3.3 74.66 L3.24 74.66 L3.24 74.48 L3.12 74.48 L3.12 74.3 L3 74.3 L3 74.06 L2.94 74.06 L2.94 73.88
							 L2.82 73.88 L2.82 73.7 L2.7 73.7 L2.7 73.46 L2.64 73.46 L2.64 73.28 L2.52 73.28 L2.52 73.1 L2.4 73.1
							 L2.4 72.86 L2.34 72.86 L2.34 72.68 L2.22 72.68 L2.22 72.5 L2.1 72.5 L2.1 72.26 L2.04 72.26 L2.04 72.08
							 L1.92 72.08 L1.92 71.9 L1.8 71.9 L1.8 71.66 L1.74 71.66 L1.74 71.48 L1.62 71.48 L1.62 71.3 L1.5 71.3
							 L1.5 71 L1.44 71 L1.44 70.7 L1.32 70.7 L1.32 70.4 L1.2 70.4 L1.2 69.98 L1.14 69.98 L1.14 69.68 L1.02
							 69.68 L1.02 69.38 L0.9 69.38 L0.9 68.96 L0.84 68.96 L0.84 68.66 L0.72 68.66 L0.72 68.36 L0.6 68.36 L0.6
							 68 L0.54 68 L0.54 67.7 L0.42 67.7 L0.42 66.86 L0.3 66.86 L0.3 65.96 L0.24 65.96 L0.24 65.06 L0.12 65.06
							 L0.12 64.16 L0 64.16 L0 63.86 L0.12 63.86 L0.12 62.3 L0.24 62.3 L0.24 60.8 L0.3 60.8 L0.3 59.96 L0.42
							 59.96 L0.42 59.6 L0.54 59.6 L0.54 59.06 L0.6 59.06 L0.6 58.58 L0.72 58.58 L0.72 58.1 L0.84 58.1 L0.84
							 57.56 L0.9 57.56 L0.9 57.26 L1.02 57.26 L1.02 56.96 L1.14 56.96 L1.14 56.66 L1.2 56.66 L1.2 56.36 L1.32
							 56.36 L1.32 56.06 L1.44 56.06 L1.44 55.76 L1.5 55.76 L1.5 55.58 L1.62 55.58 L1.62 55.28 L1.74 55.28
							 L1.74 55.1 L1.8 55.1 L1.8 54.86 L1.92 54.86 L1.92 54.68 L2.04 54.68 L2.04 54.5 L2.1 54.5 L2.1 54.26
							 L2.22 54.26 L2.22 54.08 L2.34 54.08 L2.34 53.9 L2.4 53.9 L2.4 53.66 L2.52 53.66 L2.52 53.48 L2.64 53.48
							 L2.64 53.36 L2.7 53.36 L2.7 53.18 L2.82 53.18 L2.82 53.06 L2.94 53.06 L2.94 52.88 L3 52.88 L3 52.76
							 L3.12 52.76 L3.12 52.58 L3.24 52.58 L3.24 52.4 L3.3 52.4 L3.3 52.28 L3.42 52.28 L3.42 52.1 L3.54 52.1
							 L3.54 51.98 L3.6 51.98 L3.6 51.86 L3.72 51.86 L3.72 51.8 L3.84 51.8 L3.84 51.56 L3.9 51.56 L3.9 51.5
							 L4.02 51.5 L4.02 51.38 L4.14 51.38 L4.14 51.2 L4.2 51.2 L4.2 51.08 L4.32 51.08 L4.32 50.96 L4.44 50.96
							 L4.44 50.9 L4.5 50.9 L4.5 50.66 L4.62 50.66 L4.62 50.6 L4.74 50.6 L4.74 50.48 L4.8 50.48 L4.8 50.36
							 L4.92 50.36 L4.92 50.3 L5.04 50.3 L5.04 50.18 L5.1 50.18 L5.1 50.06 L5.22 50.06 L5.22 50 L5.34 50 L5.34
							 49.88 L5.4 49.88 L5.4 49.76 L5.52 49.76 L5.52 49.7 L5.64 49.7 L5.64 49.58 L5.7 49.58 L5.7 49.46 L5.82
							 49.46 L5.82 49.4 L5.94 49.4 L5.94 49.28 L6 49.28 L6 49.16 L6.12 49.16 L6.12 49.1 L6.24 49.1 L6.24 48.98
							 L6.3 48.98 L6.3 48.86 L6.42 48.86 L6.42 48.8 L6.54 48.8 L6.54 48.68 L6.6 48.68 L6.6 48.56 L6.72 48.56
							 L6.72 48.5 L6.9 48.5 L6.9 48.38 L7.02 48.38 L7.02 48.26 L7.14 48.26 L7.14 48.2 L7.2 48.2 L7.2 48.08
							 L7.32 48.08 L7.32 47.96 L7.5 47.96 L7.5 47.9 L7.62 47.9 L7.62 47.78 L7.74 47.78 L7.74 47.66 L7.8 47.66
							 L7.8 47.6 L8.04 47.6 L8.04 47.48 L8.1 47.48 L8.1 47.36 L8.22 47.36 L8.22 47.3 L8.34 47.3 L8.34 47.18
							 L8.52 47.18 L8.52 47.06 L8.64 47.06 L8.64 47 L8.82 47 L8.82 46.88 L8.94 46.88 L8.94 46.76 L9.12 46.76
							 L9.12 46.7 L9.24 46.7 L9.24 46.58 L9.42 46.58 L9.42 46.46 L9.54 46.46 L9.54 46.4 L9.6 46.4 L9.6 46.28
							 L9.84 46.28 L9.84 46.16 L9.9 46.16 L9.9 46.1 L10.14 46.1 L10.14 45.98 L10.32 45.98 L10.32 45.86 L10.44
							 45.86 L10.44 45.8 L10.62 45.8 L10.62 45.68 L10.8 45.68 L10.8 45.56 L10.92 45.56 L10.92 45.5 L11.1 45.5
							 L11.1 45.38 L11.22 45.38 L11.22 45.26 L11.4 45.26 L11.4 45.2 L11.64 45.2 L11.64 45.08 L11.82 45.08 L11.82
							 44.96 L12 44.96 L12 44.9 L12.12 44.9 L12.12 44.78 L12.3 44.78 L12.3 44.66 L12.54 44.66 L12.54 44.6 L12.72
							 44.6 L12.72 44.48 L12.9 44.48 L12.9 44.36 L13.14 44.36 L13.14 44.3 L13.32 44.3 L13.32 44.18 L13.5 44.18
							 L13.5 44.06 L13.74 44.06 L13.74 44 L13.92 44 L13.92 43.88 L14.1 43.88 L14.1 43.76 L14.34 43.76 L14.34
							 43.7 L14.52 43.7 L14.52 43.58 L14.7 43.58 L14.7 43.46 L14.94 43.46 L14.94 43.4 L15.24 43.4 L15.24 43.28
							 L15.42 43.28 L15.42 43.16 L15.6 43.16 L15.6 43.1 L15.9 43.1 L15.9 42.98 L16.14 42.98 L16.14 42.86 L16.44
							 42.86 L16.44 42.8 L16.62 42.8 L16.62 42.68 L16.8 42.68 L16.8 42.56 L17.1 42.56 L17.1 42.5 L17.4 42.5
							 L17.4 42.38 L17.64 42.38 L17.64 42.26 L17.94 42.26 L17.94 42.2 L18.12 42.2 L18.12 42.08 L18.42 42.08
							 L18.42 41.96 L18.72 41.96 L18.72 41.9 L19.02 41.9 L19.02 41.78 L19.32 41.78 L19.32 41.66 L19.62 41.66
							 L19.62 41.6 L19.92 41.6 L19.92 41.48 L20.22 41.48 L20.22 41.36 L20.52 41.36 L20.52 41.3 L20.82 41.3
							 L20.82 41.18 L21.12 41.18 L21.12 41.06 L21.42 41.06 L21.42 41 L21.84 41 L21.84 40.88 L22.14 40.88 L22.14
							 40.76 L22.5 40.76 L22.5 40.7 L22.8 40.7 L22.8 40.58 L23.22 40.58 L23.22 40.46 L23.64 40.46 L23.64 40.4
							 L23.94 40.4 L23.94 40.28 L24.3 40.28 L24.3 40.16 L24.42 40.16 L24.42 40.1 L24.3 40.1 L24.3 39.98 L24.24
							 39.98 L24.24 39.86 L24.12 39.86 L24.12 39.8 L24 39.8 L24 39.68 L23.82 39.68 L23.82 39.56 L23.7 39.56
							 L23.7 39.5 L23.64 39.5 L23.64 39.38 L23.52 39.38 L23.52 39.26 L23.4 39.26 L23.4 39.2 L23.22 39.2 L23.22
							 39.08 L23.1 39.08 L23.1 38.96 L23.04 38.96 L23.04 38.9 L22.92 38.9 L22.92 38.78 L22.8 38.78 L22.8 38.66
							 L22.62 38.66 L22.62 38.6 L22.5 38.6 L22.5 38.48 L22.44 38.48 L22.44 38.36 L22.32 38.36 L22.32 38.3 L22.2
							 38.3 L22.2 38.18 L22.02 38.18 L22.02 38.06 L21.9 38.06 L21.9 38 L21.84 38 L21.84 37.88 L21.72 37.88
							 L21.72 37.76 L21.6 37.76 L21.6 37.7 L21.42 37.7 L21.42 37.58 L21.3 37.58 L21.3 37.46 L21.24 37.46 L21.24
							 37.4 L21.12 37.4 L21.12 37.28 L21 37.28 L21 37.16 L20.82 37.16 L20.82 37.1 L20.7 37.1 L20.7 36.98 L20.64
							 36.98 L20.64 36.86 L20.52 36.86 L20.52 36.8 L20.4 36.8 L20.4 36.68 L20.22 36.68 L20.22 36.56 L20.1 36.56
							 L20.1 36.5 L20.04 36.5 L20.04 36.38 L19.92 36.38 L19.92 36.26 L19.8 36.26 L19.8 36.2 L19.62 36.2 L19.62
							 36.08 L19.5 36.08 L19.5 35.96 L19.44 35.96 L19.44 35.9 L19.32 35.9 L19.32 35.78 L19.2 35.78 L19.2 35.66
							 L19.14 35.66 L19.14 35.6 L18.9 35.6 L18.9 35.48 L18.84 35.48 L18.84 35.36 L18.72 35.36 L18.72 35.3 L18.6
							 35.3 L18.6 35.18 L18.54 35.18 L18.54 35.06 L18.3 35.06 L18.3 35 L18.24 35 L18.24 34.88 L18.12 34.88
							 L18.12 34.76 L18 34.76 L18 34.7 L17.94 34.7 L17.94 34.58 L17.7 34.58 L17.7 34.46 L17.64 34.46 L17.64
							 34.4 L17.52 34.4 L17.52 34.28 L17.4 34.28 L17.4 34.16 L17.34 34.16 L17.34 34.1 L17.1 34.1 L17.1 33.98
							 L17.04 33.98 L17.04 33.86 L16.92 33.86 L16.92 33.8 L16.8 33.8 L16.8 33.68 L16.74 33.68 L16.74 33.56
							 L16.62 33.56 L16.62 33.5 L16.5 33.5 L16.5 33.26 L16.44 33.26 L16.44 33.08 L16.32 33.08 L16.32 32.96
							 L16.2 32.96 L16.2 32.66 L16.14 32.66 L16.14 32.36 L16.02 32.36 L16.02 31.16 L16.14 31.16 L16.14 30.8
							 L16.2 30.8 L16.2 30.5 L16.32 30.5 L16.32 30.38 L16.44 30.38 L16.44 30.2 L16.5 30.2 L16.5 29.96 L16.62
							 29.96 L16.62 29.9 L16.74 29.9 L16.74 29.78 L16.8 29.78 L16.8 29.66 L16.92 29.66 L16.92 29.6 L17.04 29.6
							 L17.04 29.48 L17.1 29.48 L17.1 29.36 L17.34 29.36 L17.34 29.3 L17.4 29.3 L17.4 29.18 L17.52 29.18 L17.52
							 29.06 L17.64 29.06 L17.64 29 L17.82 29 L17.82 28.88 L17.94 28.88 L17.94 28.76 L18 28.76 L18 28.7 L18.12
							 28.7 L18.12 28.58 L18.3 28.58 L18.3 28.46 L18.42 28.46 L18.42 28.4 L18.54 28.4 L18.54 28.28 L18.6 28.28
							 L18.6 28.16 L18.84 28.16 L18.84 28.1 L18.9 28.1 L18.9 27.98 L19.02 27.98 L19.02 27.86 L19.14 27.86 L19.14
							 27.8 L19.32 27.8 L19.32 27.68 L19.44 27.68 L19.44 27.56 L19.5 27.56 L19.5 27.5 L19.62 27.5 L19.62 27.38
							 L19.8 27.38 L19.8 27.26 L19.92 27.26 L19.92 27.2 L20.04 27.2 L20.04 27.08 L20.1 27.08 L20.1 26.96 L20.34
							 26.96 L20.34 26.9 L20.4 26.9 L20.4 26.78 L20.52 26.78 L20.52 26.66 L20.64 26.66 L20.64 26.6 L20.82 26.6
							 L20.82 26.48 L20.94 26.48 L20.94 26.36 L21 26.36 L21 26.3 L21.12 26.3 L21.12 26.18 L21.3 26.18 L21.3
							 26.06 L21.42 26.06 L21.42 26 L21.54 26 L21.54 25.88 L21.6 25.88 L21.6 25.76 L21.84 25.76 L21.84 25.7
							 L21.9 25.7 L21.9 25.58 L22.02 25.58 L22.02 25.46 L22.14 25.46 L22.14 25.4 L22.32 25.4 L22.32 25.28 L22.44
							 25.28 L22.44 25.16 L22.5 25.16 L22.5 25.1 L22.62 25.1 L22.62 24.98 L22.8 24.98 L22.8 24.86 L22.92 24.86
							 L22.92 24.8 L23.04 24.8 L23.04 24.68 L23.1 24.68 L23.1 24.56 L23.34 24.56 L23.34 24.5 L23.4 24.5 L23.4
							 24.38 L23.52 24.38 L23.52 24.26 L23.64 24.26 L23.64 24.2 L23.82 24.2 L23.82 24.08 L23.94 24.08 L23.94
							 23.96 L24 23.96 L24 23.9 L24.12 23.9 L24.12 23.78 L24.3 23.78 L24.3 23.66 L24.42 23.66 L24.42 23.6 L24.3
							 23.6 L24.3 23.48 L24.24 23.48 L24.24 23.36 L24.12 23.36 L24.12 23.3 L23.94 23.3 L23.94 23.18 L23.82
							 23.18 L23.82 23.06 L23.7 23.06 L23.7 23 L23.52 23 L23.52 22.88 L23.4 22.88 L23.4 22.76 L23.34 22.76
							 L23.34 22.7 L23.1 22.7 L23.1 22.58 L23.04 22.58 L23.04 22.46 L22.92 22.46 L22.92 22.4 L22.74 22.4 L22.74
							 22.28 L22.62 22.28 L22.62 22.16 L22.5 22.16 L22.5 22.1 L22.32 22.1 L22.32 21.98 L22.2 21.98 L22.2 21.86
							 L22.14 21.86 L22.14 21.8 L21.9 21.8 L21.9 21.68 L21.84 21.68 L21.84 21.56 L21.72 21.56 L21.72 21.5 L21.54
							 21.5 L21.54 21.38 L21.42 21.38 L21.42 21.26 L21.3 21.26 L21.3 21.2 L21.12 21.2 L21.12 21.08 L21 21.08
							 L21 20.96 L20.94 20.96 L20.94 20.9 L20.7 20.9 L20.7 20.78 L20.64 20.78 L20.64 20.66 L20.52 20.66 L20.52
							 20.6 L20.34 20.6 L20.34 20.48 L20.22 20.48 L20.22 20.36 L20.1 20.36 L20.1 20.3 L19.92 20.3 L19.92 20.18
							 L19.8 20.18 L19.8 20.06 L19.74 20.06 L19.74 20 L19.5 20 L19.5 19.88 L19.44 19.88 L19.44 20 L19.2 20
							 L19.2 20.06 L19.02 20.06 L19.02 20.18 L18.84 20.18 L18.84 20.3 L18.6 20.3 L18.6 20.36 L18.42 20.36 L18.42
							 20.48 L18.24 20.48 L18.24 20.6 L17.94 20.6 L17.94 20.66 L17.64 20.66 L17.64 20.78 L17.4 20.78 L17.4
							 20.9 L17.04 20.9 L17.04 20.96 L16.5 20.96 L16.5 21.08 L16.14 21.08 L16.14 21.2 L15.24 21.2 L15.24 21.26
							 L14.1 21.26 L14.1 21.2 L13.32 21.2 L13.32 21.08 L12.72 21.08 L12.72 20.96 L12.42 20.96 L12.42 20.9 L12.12
							 20.9 L12.12 20.78 L11.82 20.78 L11.82 20.66 L11.4 20.66 L11.4 20.6 L11.1 20.6 L11.1 20.48 L10.92 20.48
							 L10.92 20.36 L10.74 20.36 L10.74 20.3 L10.62 20.3 L10.62 20.18 L10.44 20.18 L10.44 20.06 L10.2 20.06
							 L10.2 20 L10.02 20 L10.02 19.88 L9.84 19.88 L9.84 19.76 L9.6 19.76 L9.6 19.7 L9.54 19.7 L9.54 19.58
							 L9.42 19.58 L9.42 19.46 L9.3 19.46 L9.3 19.4 L9.12 19.4 L9.12 19.28 L9 19.28 L9 19.16 L8.94 19.16 L8.94
							 19.1 L8.82 19.1 L8.82 18.98 L8.64 18.98 L8.64 18.86 L8.52 18.86 L8.52 18.8 L8.4 18.8 L8.4 18.68 L8.34
							 18.68 L8.34 18.56 L8.22 18.56 L8.22 18.5 L8.1 18.5 L8.1 18.38 L8.04 18.38 L8.04 18.26 L7.92 18.26 L7.92
							 18.08 L7.8 18.08 L7.8 17.96 L7.74 17.96 L7.74 17.9 L7.62 17.9 L7.62 17.78 L7.5 17.78 L7.5 17.66 L7.44
							 17.66 L7.44 17.48 L7.32 17.48 L7.32 17.36 L7.2 17.36 L7.2 17.3 L7.14 17.3 L7.14 17.06 L7.02 17.06 L7.02
							 16.88 L6.9 16.88 L6.9 16.76 L6.84 16.76 L6.84 16.58 L6.72 16.58 L6.72 16.4 L6.6 16.4 L6.6 16.16 L6.54
							 16.16 L6.54 15.98 L6.42 15.98 L6.42 15.8 L6.3 15.8 L6.3 15.56 L6.24 15.56 L6.24 15.26 L6.12 15.26 L6.12
							 14.96 L6 14.96 L6 14.6 L5.94 14.6 L5.94 14.3 L5.82 14.3 L5.82 14 L5.7 14 L5.7 13.16 L5.64 13.16 L5.64
							 11.06 L5.7 11.06 L5.7 10.4 L5.82 10.4 L5.82 9.98 L5.94 9.98 L5.94 9.68 L6 9.68 L6 9.38 L6.12 9.38 L6.12
							 8.96 L6.24 8.96 L6.24 8.66 L6.3 8.66 L6.3 8.48 L6.42 8.48 L6.42 8.3 L6.54 8.3 L6.54 8.06 L6.6 8.06 L6.6
							 7.88 L6.72 7.88 L6.72 7.76 L6.84 7.76 L6.84 7.58 L6.9 7.58 L6.9 7.4 L7.02 7.4 L7.02 7.16 L7.14 7.16
							 L7.14 6.98 L7.2 6.98 L7.2 6.86 L7.32 6.86 L7.32 6.8 L7.44 6.8 L7.44 6.68 L7.5 6.68 L7.5 6.5 L7.62 6.5
							 L7.62 6.38 L7.74 6.38 L7.74 6.26 L7.8 6.26 L7.8 6.2 L7.92 6.2 L7.92 6.08 L8.04 6.08 L8.04 5.9 L8.1 5.9
							 L8.1 5.78 L8.22 5.78 L8.22 5.66 L8.34 5.66 L8.34 5.6 L8.4 5.6 L8.4 5.48 L8.64 5.48 L8.64 5.36 L8.7 5.36
							 L8.7 5.3 L8.82 5.3 L8.82 5.18 L8.94 5.18 L8.94 5.06 L9 5.06 L9 5 L9.24 5 L9.24 4.88 L9.3 4.88 L9.3 4.76
							 L9.42 4.76 L9.42 4.7 L9.54 4.7 L9.54 4.58 L9.72 4.58 L9.72 4.46 L9.9 4.46 L9.9 4.4 L10.14 4.4 L10.14
							 4.28 L10.2 4.28 L10.2 4.16 L10.44 4.16 L10.44 4.1 L10.62 4.1 L10.62 3.98 L10.8 3.98 L10.8 3.86 L11.04
							 3.86 L11.04 3.8 L11.22 3.8 L11.22 3.68 L11.52 3.68 L11.52 3.56 L11.94 3.56 L11.94 3.5 L12.24 3.5 L12.24
							 3.38 L12.54 3.38 L12.54 3.26 L12.84 3.26 L12.84 3.2 L13.62 3.2 L13.62 3.08 L15.84 3.08 L15.84 3.2 L16.5
							 3.2 L16.5 3.26 L16.8 3.26 L16.8 3.38 L17.22 3.38 L17.22 3.5 L17.52 3.5 L17.52 3.56 L17.82 3.56 L17.82
							 3.68 L18.12 3.68 L18.12 3.8 L18.42 3.8 L18.42 3.86 L18.54 3.86 L18.54 3.98 L18.72 3.98 L18.72 4.1 L18.9
							 4.1 L18.9 4.16 L19.14 4.16 L19.14 4.28 L19.32 4.28 L19.32 4.4 L19.5 4.4 L19.5 4.46 L19.74 4.46 L19.74
							 4.58 L19.8 4.58 L19.8 4.7 L19.92 4.7 L19.92 4.76 L20.1 4.76 L20.1 4.88 L20.22 4.88 L20.22 5 L20.34 5
							 L20.34 5.06 L20.4 5.06 L20.4 5.18 L20.52 5.18 L20.52 5.3 L20.7 5.3 L20.7 5.36 L20.82 5.36 L20.82 5.48
							 L20.94 5.48 L20.94 5.6 L21 5.6 L21 5.66 L21.12 5.66 L21.12 5.78 L21.24 5.78 L21.24 5.9 L21.3 5.9 L21.3
							 5.96 L21.42 5.96 L21.42 6.08 L21.54 6.08 L21.54 6.2 L21.6 6.2 L21.6 6.38 L21.72 6.38 L21.72 6.5 L21.84
							 6.5 L21.84 6.56 L21.9 6.56 L21.9 6.68 L22.02 6.68 L22.02 6.86 L22.14 6.86 L22.14 6.98 L22.2 6.98 L22.2
							 7.1 L22.32 7.1 L22.32 7.28 L22.44 7.28 L22.44 7.46 L22.5 7.46 L22.5 7.7 L22.62 7.7 L22.62 7.88 L22.74
							 7.88 L22.74 8 L22.8 8 L22.8 8.18 L22.92 8.18 L22.92 8.36 L23.04 8.36 L23.04 8.6 L23.1 8.6 L23.1 8.9
							 L23.22 8.9 L23.22 9.2 L23.34 9.2 L23.34 9.5 L23.4 9.5 L23.4 9.86 L23.52 9.86 L23.52 10.16 L23.64 10.16
							 L23.64 10.76 L23.7 10.76 L23.7 11.48 L23.82 11.48 L23.82 12.8 L23.7 12.8 L23.7 13.46 L23.64 13.46 L23.64
							 14.06 L23.52 14.06 L23.52 14.48 L23.4 14.48 L23.4 14.78 L23.34 14.78 L23.34 15.2 L23.22 15.2 L23.22
							 15.56 L23.34 15.56 L23.34 15.68 L23.4 15.68 L23.4 15.8 L23.64 15.8 L23.64 15.86 L23.7 15.86 L23.7 15.98
							 L23.82 15.98 L23.82 16.1 L24 16.1 L24 16.16 L24.12 16.16 L24.12 16.28 L24.24 16.28 L24.24 16.4 L24.42
							 16.4 L24.42 16.46 L24.54 16.46 L24.54 16.58 L24.6 16.58 L24.6 16.7 L24.84 16.7 L24.84 16.76 L24.9 16.76
							 L24.9 16.88 L25.02 16.88 L25.02 17 L25.2 17 L25.2 17.06 L25.32 17.06 L25.32 17.18 L25.44 17.18 L25.44
							 17.3 L25.62 17.3 L25.62 17.36 L25.74 17.36 L25.74 17.48 L25.8 17.48 L25.8 17.6 L26.04 17.6 L26.04 17.66
							 L26.1 17.66 L26.1 17.78 L26.22 17.78 L26.22 17.9 L26.4 17.9 L26.4 17.96 L26.52 17.96 L26.52 18.08 L26.64
							 18.08 L26.64 18.2 L26.82 18.2 L26.82 18.26 L26.94 18.26 L26.94 18.38 L27 18.38 L27 18.5 L27.24 18.5
							 L27.24 18.56 L27.3 18.56 L27.3 18.68 L27.42 18.68 L27.42 18.8 L27.6 18.8 L27.6 18.86 L27.72 18.86 L27.72
							 18.98 L27.84 18.98 L27.84 19.1 L28.02 19.1 L28.02 19.16 L28.14 19.16 L28.14 19.28 L28.2 19.28 L28.2
							 19.4 L28.44 19.4 L28.44 19.46 L28.5 19.46 L28.5 19.58 L28.62 19.58 L28.62 19.7 L28.8 19.7 L28.8 19.76
							 L28.92 19.76 L28.92 19.88 L29.04 19.88 L29.04 20 L29.22 20 L29.22 20.06 L29.34 20.06 L29.34 20.18 L29.4
							 20.18 L29.4 20.3 L29.64 20.3 L29.64 20.36 L29.7 20.36 L29.7 20.48 L29.82 20.48 L29.82 20.6 L30 20.6
							 L30 20.66 L30.12 20.66 L30.12 20.78 L30.24 20.78 L30.24 20.9 L30.42 20.9 L30.42 20.96 L30.54 20.96 L30.54
							 21.08 L30.6 21.08 L30.6 21.2 L30.84 21.2 L30.84 21.26 L30.9 21.26 L30.9 21.38 L31.02 21.38 L31.02 21.5
							 L31.14 21.5 L31.14 21.56 L31.2 21.56 L31.2 21.68 L31.32 21.68 L31.32 21.8 L31.44 21.8 L31.44 21.98 L31.5
							 21.98 L31.5 22.1 L31.62 22.1 L31.62 22.28 L31.74 22.28 L31.74 22.58 L31.8 22.58 L31.8 23 L31.92 23 L31.92
							 24.08 L31.8 24.08 L31.8 24.5 L31.74 24.5 L31.74 24.8 L31.62 24.8 L31.62 24.86 L31.5 24.86 L31.5 25.1
							 L31.44 25.1 L31.44 25.28 L31.32 25.28 L31.32 25.4 L31.2 25.4 L31.2 25.46 L31.14 25.46 L31.14 25.58 L31.02
							 25.58 L31.02 25.7 L30.9 25.7 L30.9 25.76 L30.84 25.76 L30.84 25.88 L30.6 25.88 L30.6 26 L30.54 26 L30.54
							 26.06 L30.42 26.06 L30.42 26.18 L30.3 26.18 L30.3 26.3 L30.12 26.3 L30.12 26.36 L30 26.36 L30 26.48
							 L29.94 26.48 L29.94 26.6 L29.82 26.6 L29.82 26.66 L29.64 26.66 L29.64 26.78 L29.52 26.78 L29.52 26.9
							 L29.4 26.9 L29.4 26.96 L29.34 26.96 L29.34 27.08 L29.1 27.08 L29.1 27.2 L29.04 27.2 L29.04 27.26 L28.92
							 27.26 L28.92 27.38 L28.8 27.38 L28.8 27.5 L28.62 27.5 L28.62 27.56 L28.5 27.56 L28.5 27.68 L28.44 27.68
							 L28.44 27.8 L28.32 27.8 L28.32 27.86 L28.14 27.86 L28.14 27.98 L28.02 27.98 L28.02 28.1 L27.9 28.1 L27.9
							 28.16 L27.84 28.16 L27.84 28.28 L27.6 28.28 L27.6 28.4 L27.54 28.4 L27.54 28.46 L27.42 28.46 L27.42
							 28.58 L27.3 28.58 L27.3 28.7 L27.12 28.7 L27.12 28.76 L27 28.76 L27 28.88 L26.94 28.88 L26.94 29 L26.82
							 29 L26.82 29.06 L26.64 29.06 L26.64 29.18 L26.52 29.18 L26.52 29.3 L26.4 29.3 L26.4 29.36 L26.34 29.36
							 L26.34 29.48 L26.1 29.48 L26.1 29.6 L26.04 29.6 L26.04 29.66 L25.92 29.66 L25.92 29.78 L25.8 29.78 L25.8
							 29.9 L25.62 29.9 L25.62 29.96 L25.5 29.96 L25.5 30.08 L25.44 30.08 L25.44 30.2 L25.32 30.2 L25.32 30.26
							 L25.14 30.26 L25.14 30.38 L25.02 30.38 L25.02 30.5 L24.9 30.5 L24.9 30.56 L24.84 30.56 L24.84 30.68
							 L24.6 30.68 L24.6 30.8 L24.54 30.8 L24.54 30.86 L24.42 30.86 L24.42 30.98 L24.3 30.98 L24.3 31.1 L24.12
							 31.1 L24.12 31.16 L24 31.16 L24 31.28 L23.94 31.28 L23.94 31.4 L23.82 31.4 L23.82 31.46 L23.64 31.46
							 L23.64 31.58 L23.52 31.58 L23.52 31.7 L23.4 31.7 L23.4 31.88 L23.52 31.88 L23.52 32 L23.64 32 L23.64
							 32.06 L23.7 32.06 L23.7 32.18 L23.94 32.18 L23.94 32.3 L24 32.3 L24 32.36 L24.12 32.36 L24.12 32.48
							 L24.24 32.48 L24.24 32.6 L24.3 32.6 L24.3 32.66 L24.54 32.66 L24.54 32.78 L24.6 32.78 L24.6 32.9 L24.72
							 32.9 L24.72 32.96 L24.84 32.96 L24.84 33.08 L24.9 33.08 L24.9 33.2 L25.14 33.2 L25.14 33.26 L25.2 33.26
							 L25.2 33.38 L25.32 33.38 L25.32 33.5 L25.44 33.5 L25.44 33.56 L25.5 33.56 L25.5 33.68 L25.74 33.68 L25.74
							 33.8 L25.8 33.8 L25.8 33.86 L25.92 33.86 L25.92 33.98 L26.04 33.98 L26.04 34.1 L26.1 34.1 L26.1 34.16
							 L26.34 34.16 L26.34 34.28 L26.4 34.28 L26.4 34.4 L26.52 34.4 L26.52 34.46 L26.64 34.46 L26.64 34.58
							 L26.7 34.58 L26.7 34.7 L26.94 34.7 L26.94 34.76 L27 34.76 L27 34.88 L27.12 34.88 L27.12 35 L27.24 35
							 L27.24 35.06 L27.3 35.06 L27.3 35.18 L27.54 35.18 L27.54 35.3 L27.6 35.3 L27.6 35.36 L27.72 35.36 L27.72
							 35.48 L27.84 35.48 L27.84 35.6 L27.9 35.6 L27.9 35.66 L28.14 35.66 L28.14 35.78 L28.2 35.78 L28.2 35.9
							 L28.32 35.9 L28.32 35.96 L28.44 35.96 L28.44 36.08 L28.5 36.08 L28.5 36.2 L28.74 36.2 L28.74 36.26 L28.8
							 36.26 L28.8 36.38 L28.92 36.38 L28.92 36.5 L29.04 36.5 L29.04 36.56 L29.1 36.56 L29.1 36.68 L29.34 36.68
							 L29.34 36.8 L29.4 36.8 L29.4 36.86 L29.52 36.86 L29.52 36.98 L29.64 36.98 L29.64 37.1 L29.7 37.1 L29.7
							 37.16 L29.94 37.16 L29.94 37.28 L30 37.28 L30 37.4 L30.12 37.4 L30.12 37.46 L30.24 37.46 L30.24 37.58
							 L30.3 37.58 L30.3 37.7 L30.54 37.7 L30.54 37.76 L30.6 37.76 L30.6 37.88 L30.72 37.88 L30.72 38 L30.84
							 38 L30.84 38.06 L30.9 38.06 L30.9 38.18 L31.14 38.18 L31.14 38.3 L31.2 38.3 L31.2 38.36 L31.32 38.36
							 L31.32 38.48 L31.44 38.48 L31.44 38.6 L31.5 38.6 L31.5 38.66 L31.74 38.66 L31.74 38.78 L32.04 38.78
							 L32.04 38.66 L32.82 38.66 L32.82 38.6 L33.72 38.6 L33.72 38.48 L34.5 38.48 L34.5 38.36 L35.4 38.36 L35.4
							 38.3 L36.6 38.3 L36.6 38.18 L37.8 38.18 L37.8 38.06 L39.9 38.06 L39.9 38 L42.6 38 L42.6 38.06 L45.12
							 38.06 L45.12 38.18 L46.14 38.18 L46.14 38.3 L47.04 38.3 L47.04 38.36 L48 38.36 L48 38.48 L48.6 38.48
							 L48.6 38.6 L49.2 38.6 L49.2 38.66 L49.8 38.66 L49.8 38.78 L50.4 38.78 L50.4 38.9 L51 38.9 L51 38.96
							 L51.42 38.96 L51.42 39.08 L51.9 39.08 L51.9 39.2 L52.32 39.2 L52.32 39.26 L52.74 39.26 L52.74 39.38
							 L53.1 39.38 L53.1 39.5 L53.64 39.5 L53.64 39.56 L54 39.56 L54 39.68 L54.3 39.68 L54.3 39.8 L54.6 39.8
							 L54.6 39.86 L54.9 39.86 L54.9 39.98 L55.32 39.98 L55.32 40.1 L55.62 40.1 L55.62 40.16 L55.92 40.16 L55.92
							 40.28 L56.34 40.28 L56.34 40.4 L56.64 40.4 L56.64 40.46 L56.94 40.46 L56.94 40.58 L57.12 40.58 L57.12
							 40.7 L57.42 40.7 L57.42 40.76 L57.72 40.76 L57.72 40.88 L57.9 40.88 L57.9 41 L58.2 41 L58.2 41.06 L58.5
							 41.06 L58.5 41.18 L58.74 41.18 L58.74 41.3 L59.04 41.3 L59.04 41.36 L59.22 41.36 L59.22 41.48 L59.52
							 41.48 L59.52 41.6 L59.7 41.6 L59.7 41.66 L59.94 41.66 L59.94 41.78 L60.12 41.78 L60.12 41.9 L60.42 41.9
							 L60.42 41.96 L60.6 41.96 L60.6 42.08 L60.84 42.08 L60.84 42.2 L61.02 42.2 L61.02 42.26 L61.32 42.26
							 L61.32 42.38 L61.5 42.38 L61.5 42.5 L61.74 42.5 L61.74 42.56 L61.92 42.56 L61.92 42.68 L62.1 42.68 L62.1
							 42.8 L62.34 42.8 L62.34 42.86 L62.52 42.86 L62.52 42.98 L62.7 42.98 L62.7 43.1 L62.94 43.1 L62.94 43.16
							 L63 43.16 L63 43.28 L63.24 43.28 L63.24 43.4 L63.42 43.4 L63.42 43.46 L63.6 43.46 L63.6 43.58 L63.84
							 43.58 L63.84 43.7 L64.02 43.7 L64.02 43.76 L64.2 43.76 L64.2 43.88 L64.32 43.88 L64.32 44 L64.5 44 L64.5
							 44.06 L64.74 44.06 L64.74 44.18 L64.8 44.18 L64.8 44.3 L65.04 44.3 L65.04 44.36 L65.22 44.36 L65.22
							 44.48 L65.34 44.48 L65.34 44.6 L65.52 44.6 L65.52 44.66 L65.7 44.66 L65.7 44.78 L65.82 44.78 L65.82
							 44.9 L66 44.9 L66 44.96 L66.12 44.96 L66.12 45.08 L66.3 45.08 L66.3 45.2 L66.42 45.2 L66.42 45.26 L66.6
							 45.26 L66.6 45.38 L66.72 45.38 L66.72 45.5 L66.9 45.5 L66.9 45.56 L67.02 45.56 L67.02 45.68 L67.2 45.68
							 L67.2 45.8 L67.32 45.8 L67.32 45.86 L67.5 45.86 L67.5 45.98 L67.62 45.98 L67.62 46.1 L67.8 46.1 L67.8
							 46.16 L67.92 46.16 L67.92 46.28 L68.04 46.28 L68.04 46.4 L68.22 46.4 L68.22 46.46 L68.34 46.46 L68.34
							 46.58 L68.4 46.58 L68.4 46.7 L68.64 46.7 L68.64 46.76 L68.7 46.76 L68.7 46.88 L68.82 46.88 L68.82 47
							 L68.94 47 L68.94 47.06 L69.12 47.06 L69.12 47.18 L69.24 47.18 L69.24 47.3 L69.3 47.3 L69.3 47.36 L69.54
							 47.36 L69.54 47.48 L69.6 47.48 L69.6 47.6 L69.72 47.6 L69.72 47.66 L69.9 47.66 L69.9 47.78 L70.02 47.78
							 L70.02 47.9 L70.14 47.9 L70.14 47.96 L70.2 47.96 L70.2 48.08 L70.32 48.08 L70.32 48.2 L70.44 48.2 L70.44
							 48.26 L70.5 48.26 L70.5 48.38 L70.74 48.38 L70.74 48.5 L70.8 48.5 L70.8 48.56 L70.92 48.56 L70.92 48.68
							 L71.04 48.68 L71.04 48.8 L71.1 48.8 L71.1 48.86 L71.22 48.86 L71.22 48.98 L71.4 48.98 L71.4 49.1 L71.52
							 49.1 L71.52 49.16 L71.64 49.16 L71.64 49.28 L71.7 49.28 L71.7 49.4 L71.82 49.4 L71.82 49.46 L71.94 49.46
							 L71.94 49.58 L72 49.58 L72 49.7 L72.12 49.7 L72.12 49.76 L72.24 49.76 L72.24 49.88 L72.3 49.88 L72.3
							 50 L72.42 50 L72.42 50.06 L72.54 50.06 L72.54 50.18 L72.6 50.18 L72.6 50.3 L72.72 50.3 L72.72 50.36
							 L72.84 50.36 L72.84 50.48 L72.9 50.48 L72.9 50.6 L73.02 50.6 L73.02 50.66 L73.14 50.66 L73.14 50.78
							 L73.2 50.78 L73.2 50.9 L73.32 50.9 L73.32 50.96 L73.44 50.96 L73.44 51.08 L73.5 51.08 L73.5 51.2 L73.62
							 51.2 L73.62 51.26 L73.74 51.26 L73.74 51.38 L73.8 51.38 L73.8 51.56 L73.92 51.56 L73.92 51.68 L74.04
							 51.68 L74.04 51.8 L74.1 51.8 L74.1 51.86 L74.22 51.86 L74.22 51.98 L74.34 51.98 L74.34 52.1 L74.4 52.1
							 L74.4 52.16 L74.52 52.16 L74.52 52.28 L74.64 52.28 L74.64 52.4 L74.7 52.4 L74.7 52.58 L74.82 52.58 L74.82
							 52.7 L74.94 52.7 L74.94 52.76 L75 52.76 L75 52.88 L75.12 52.88 L75.12 53.06 L75.24 53.06 L75.24 53.18
							 L75.3 53.18 L75.3 53.3 L75.42 53.3 L75.42 53.36 L75.54 53.36 L75.54 53.6 L75.6 53.6 L75.6 53.66 L75.72
							 53.66 L75.72 53.78 L75.84 53.78 L75.84 53.96 L75.9 53.96 L75.9 54.08 L76.02 54.08 L76.02 54.2 L76.14
							 54.2 L76.14 54.38 L76.2 54.38 L76.2 54.5 L76.32 54.5 L76.32 54.68 L76.44 54.68 L76.44 54.8 L76.5 54.8
							 L76.5 54.98 L76.62 54.98 L76.62 55.1 L76.74 55.1 L76.74 55.28 L76.8 55.28 L76.8 55.46 L76.92 55.46 L76.92
							 55.58 L77.04 55.58 L77.04 55.76 L77.1 55.76 L77.1 56 L77.22 56 L77.22 56.18 L77.34 56.18 L77.34 56.36
							 L77.4 56.36 L77.4 56.6 L77.52 56.6 L77.52 56.66 L77.64 56.66 L77.64 56.9 L77.7 56.9 L77.7 57.08 L77.82
							 57.08 L77.82 57.26 L77.94 57.26 L77.94 57.5 L78 57.5 L78 57.68 L78.12 57.68 L78.12 57.86 L78.24 57.86
							 L78.24 58.16 L78.3 58.16 L78.3 58.4 L78.42 58.4 L78.42 58.58 L78.54 58.58 L78.54 58.76 L78.6 58.76 L78.6
							 59.06 L78.72 59.06 L78.72 59.3 L78.84 59.3 L78.84 59.48 L78.9 59.48 L78.9 59.78 L79.02 59.78 L79.02
							 60.08 L79.14 60.08 L79.14 60.38 L79.2 60.38 L79.2 60.56 L79.32 60.56 L79.32 60.86 L79.44 60.86 L79.44
							 61.16 L79.5 61.16 L79.5 61.4 L79.62 61.4 L79.62 61.76 L79.74 61.76 L79.74 62.06 L79.8 62.06 L79.8 62.36
							 L79.92 62.36 L79.92 62.78 L80.04 62.78 L80.04 63.08 L80.1 63.08 L80.1 63.5 L80.22 63.5 L80.22 63.8 L80.34
							 63.8 L80.34 64.16 L80.4 64.16 L80.4 64.7 L80.52 64.7 L80.52 65.18 L80.64 65.18 L80.64 65.6 L80.7 65.6
							 L80.7 66.08 L80.82 66.08 L80.82 66.56 L80.94 66.56 L80.94 67.28 L81 67.28 L81 67.88 L81.12 67.88 L81.12
							 68.6 L81.24 68.6 L81.24 69.56 L81.3 69.56 L81.3 71 L81.42 71 L81.42 74.66 L81.3 74.66 L81.3 75.68 L81.24
							 75.68 L81.24 76.76 L81.12 76.76 L81.12 77.48 L81 77.48 L81 77.96 L80.94 77.96 L80.94 78.5 L80.82 78.5
							 L80.82 78.98 L80.7 78.98 L80.7 79.46 L80.64 79.46 L80.64 80 L80.52 80 L80.52 80.3 L80.4 80.3 L80.4 80.6
							 L80.34 80.6 L80.34 80.9 L80.22 80.9 L80.22 81.26 L80.1 81.26 L80.1 81.56 L80.04 81.56 L80.04 81.86 L79.92
							 81.86 L79.92 82.16 L79.8 82.16 L79.8 82.46 L79.74 82.46 L79.74 82.7 L79.62 82.7 L79.62 83 L79.5 83 L79.5
							 83.18 L79.44 83.18 L79.44 83.36 L79.32 83.36 L79.32 83.6 L79.2 83.6 L79.2 83.9 L79.14 83.9 L79.14 84.08
							 L79.02 84.08 L79.02 84.26 L78.9 84.26 L78.9 84.5 L78.84 84.5 L78.84 84.8 L78.72 84.8 L78.72 84.98 L78.6
							 84.98 L78.6 85.1 L78.54 85.1 L78.54 85.28 L78.42 85.28 L78.42 85.46 L78.3 85.46 L78.3 85.58 L78.24 85.58
							 L78.24 85.76 L78.12 85.76 L78.12 86 L78 86 L78 86.06 L77.94 86.06 L77.94 86.3 L77.82 86.3 L77.82 86.36
							 L77.7 86.36 L77.7 86.6 L77.64 86.6 L77.64 86.78 L77.52 86.78 L77.52 86.9 L77.4 86.9 L77.4 87.08 L77.34
							 87.08 L77.34 87.26 L77.22 87.26 L77.22 87.38 L77.1 87.38 L77.1 87.5 L77.04 87.5 L77.04 87.56 L76.92
							 87.56 L76.92 87.8 L76.8 87.8 L76.8 87.86 L76.74 87.86 L76.74 87.98 L76.62 87.98 L76.62 88.1 L76.5 88.1
							 L76.5 88.28 L76.44 88.28 L76.44 88.4 L76.32 88.4 L76.32 88.46 L76.2 88.46 L76.2 88.58 L76.14 88.58 L76.14
							 88.76 L76.02 88.76 L76.02 88.88 L75.9 88.88 L75.9 89 L75.84 89 L75.84 89.06 L75.72 89.06 L75.72 89.3
							 L75.6 89.3 L75.6 89.36 L75.54 89.36 L75.54 89.48 L75.42 89.48 L75.42 89.6 L75.3 89.6 L75.3 89.66 L75.24
							 89.66 L75.24 89.78 L75.12 89.78 L75.12 89.9 L75 89.9 L75 89.96 L74.94 89.96 L74.94 90.08 L74.82 90.08
							 L74.82 90.2 L74.7 90.2 L74.7 90.26 L74.64 90.26 L74.64 90.38 L74.52 90.38 L74.52 90.5 L74.4 90.5 L74.4
							 90.56 L74.34 90.56 L74.34 90.68 L74.22 90.68 L74.22 90.8 L74.1 90.8 L74.1 90.86 L74.04 90.86 L74.04
							 90.98 L73.92 90.98 L73.92 91.1 L73.74 91.1 L73.74 91.16 L73.62 91.16 L73.62 91.28 L73.5 91.28 L73.5
							 91.4 L73.44 91.4 L73.44 91.46 L73.2 91.46 L73.2 91.58 L73.14 91.58 L73.14 91.7 L73.02 91.7 L73.02 91.76
							 L72.9 91.76 L72.9 91.88 L72.72 91.88 L72.72 92 L72.6 92 L72.6 92.06 L72.42 92.06 L72.42 92.18 L72.3
							 92.18 L72.3 92.3 L72.12 92.3 L72.12 92.36 L72 92.36 L72 92.48 L71.82 92.48 L71.82 92.6 L71.7 92.6 L71.7
							 92.66 L71.52 92.66 L71.52 92.78 L71.34 92.78 L71.34 92.9 L71.1 92.9 L71.1 92.96 L70.92 92.96 L70.92
							 93.08 L70.74 93.08 L70.74 93.2 L70.5 93.2 L70.5 93.26 L70.32 93.26 L70.32 93.38 L70.2 93.38 L70.2 93.5
							 L70.02 93.5 L70.02 93.56 L69.84 93.56 L69.84 93.68 L69.6 93.68 L69.6 93.8 L69.3 93.8 L69.3 93.86 L69.12
							 93.86 L69.12 93.98 L68.82 93.98 L68.82 94.1 L68.64 94.1 L68.64 94.16 L68.34 94.16 L68.34 94.28 L68.04
							 94.28 L68.04 94.4 L67.8 94.4 L67.8 94.46 L67.5 94.46 L67.5 94.58 L67.2 94.58 L67.2 94.7 L66.9 94.7 L66.9
							 94.76 L66.54 94.76 L66.54 94.88 L66.24 94.88 L66.24 95 L65.82 95 L65.82 95.06 L65.52 95.06 L65.52 95.18
							 L65.22 95.18 L65.22 95.3 L64.74 95.3 L64.74 95.36 L64.2 95.36 L64.2 95.48 L63.72 95.48 L63.72 95.6 L63.3
							 95.6 L63.3 95.66 L62.82 95.66 L62.82 95.78 L62.22 95.78 L62.22 95.9 L61.44 95.9 L61.44 95.96 L60.72
							 95.96 L60.72 96.08 L60 96.08 L60 96.2 L58.8 96.2 L58.8 96.26 L57.54 96.26 L57.54 96.38 L50.22 96.38
							 ZM24.72 72.68 L24.72 72.8 L26.94 72.8 L26.94 72.68 L27.54 72.68 L27.54 72.56 L27.84 72.56 L27.84 72.5
							 L28.14 72.5 L28.14 72.38 L28.5 72.38 L28.5 72.26 L28.8 72.26 L28.8 72.2 L29.04 72.2 L29.04 72.08 L29.22
							 72.08 L29.22 71.96 L29.4 71.96 L29.4 71.9 L29.52 71.9 L29.52 71.78 L29.7 71.78 L29.7 71.66 L29.94 71.66
							 L29.94 71.6 L30.12 71.6 L30.12 71.48 L30.24 71.48 L30.24 71.36 L30.3 71.36 L30.3 71.3 L30.54 71.3 L30.54
							 71.18 L30.6 71.18 L30.6 71.06 L30.72 71.06 L30.72 71 L30.84 71 L30.84 70.88 L31.02 70.88 L31.02 70.76
							 L31.14 70.76 L31.14 70.7 L31.2 70.7 L31.2 70.58 L31.32 70.58 L31.32 70.46 L31.44 70.46 L31.44 70.4 L31.5
							 70.4 L31.5 70.28 L31.62 70.28 L31.62 70.1 L31.74 70.1 L31.74 69.98 L31.8 69.98 L31.8 69.86 L31.92 69.86
							 L31.92 69.8 L32.04 69.8 L32.04 69.56 L32.1 69.56 L32.1 69.5 L32.22 69.5 L32.22 69.38 L32.34 69.38 L32.34
							 69.2 L32.4 69.2 L32.4 68.96 L32.52 68.96 L32.52 68.78 L32.64 68.78 L32.64 68.6 L32.7 68.6 L32.7 68.48
							 L32.82 68.48 L32.82 68.3 L32.94 68.3 L32.94 68.06 L33 68.06 L33 67.7 L33.12 67.7 L33.12 67.4 L33.24
							 67.4 L33.24 67.1 L33.3 67.1 L33.3 66.8 L33.42 66.8 L33.42 66.2 L33.54 66.2 L33.54 64.16 L33.42 64.16
							 L33.42 63.56 L33.3 63.56 L33.3 63.2 L33.24 63.2 L33.24 62.96 L33.12 62.96 L33.12 62.66 L33 62.66 L33
							 62.36 L32.94 62.36 L32.94 62.06 L32.82 62.06 L32.82 61.88 L32.7 61.88 L32.7 61.7 L32.64 61.7 L32.64
							 61.46 L32.52 61.46 L32.52 61.4 L32.4 61.4 L32.4 61.16 L32.34 61.16 L32.34 60.98 L32.22 60.98 L32.22
							 60.86 L32.1 60.86 L32.1 60.68 L32.04 60.68 L32.04 60.56 L31.92 60.56 L31.92 60.38 L31.8 60.38 L31.8
							 60.26 L31.74 60.26 L31.74 60.2 L31.62 60.2 L31.62 60.08 L31.5 60.08 L31.5 59.96 L31.44 59.96 L31.44
							 59.9 L31.32 59.9 L31.32 59.78 L31.2 59.78 L31.2 59.66 L31.14 59.66 L31.14 59.6 L31.02 59.6 L31.02 59.48
							 L30.9 59.48 L30.9 59.36 L30.84 59.36 L30.84 59.3 L30.72 59.3 L30.72 59.18 L30.6 59.18 L30.6 59.06 L30.42
							 59.06 L30.42 59 L30.3 59 L30.3 58.88 L30.12 58.88 L30.12 58.76 L30 58.76 L30 58.7 L29.82 58.7 L29.82
							 58.58 L29.7 58.58 L29.7 58.46 L29.52 58.46 L29.52 58.4 L29.34 58.4 L29.34 58.28 L29.1 58.28 L29.1 58.16
							 L28.8 58.16 L28.8 58.1 L28.62 58.1 L28.62 57.98 L28.32 57.98 L28.32 57.86 L28.02 57.86 L28.02 57.8 L27.6
							 57.8 L27.6 57.68 L27.24 57.68 L27.24 57.56 L26.52 57.56 L26.52 57.5 L25.2 57.5 L25.2 57.56 L24.6 57.56
							 L24.6 57.68 L24.12 57.68 L24.12 57.8 L23.82 57.8 L23.82 57.86 L23.4 57.86 L23.4 57.98 L23.22 57.98 L23.22
							 58.1 L22.92 58.1 L22.92 58.16 L22.74 58.16 L22.74 58.28 L22.5 58.28 L22.5 58.4 L22.32 58.4 L22.32 58.46
							 L22.14 58.46 L22.14 58.58 L22.02 58.58 L22.02 58.7 L21.84 58.7 L21.84 58.76 L21.72 58.76 L21.72 58.88
							 L21.54 58.88 L21.54 59 L21.42 59 L21.42 59.06 L21.3 59.06 L21.3 59.18 L21.24 59.18 L21.24 59.3 L21 59.3
							 L21 59.36 L20.94 59.36 L20.94 59.48 L20.82 59.48 L20.82 59.6 L20.64 59.6 L20.64 59.66 L20.52 59.66 L20.52
							 59.9 L20.4 59.9 L20.4 59.96 L20.34 59.96 L20.34 60.08 L20.22 60.08 L20.22 60.2 L20.1 60.2 L20.1 60.26
							 L20.04 60.26 L20.04 60.5 L19.92 60.5 L19.92 60.56 L19.8 60.56 L19.8 60.68 L19.74 60.68 L19.74 60.8 L19.62
							 60.8 L19.62 60.98 L19.5 60.98 L19.5 61.1 L19.44 61.1 L19.44 61.28 L19.32 61.28 L19.32 61.46 L19.2 61.46
							 L19.2 61.58 L19.14 61.58 L19.14 61.76 L19.02 61.76 L19.02 62 L18.9 62 L18.9 62.18 L18.84 62.18 L18.84
							 62.48 L18.72 62.48 L18.72 62.78 L18.6 62.78 L18.6 63.08 L18.54 63.08 L18.54 63.5 L18.42 63.5 L18.42
							 64.16 L18.3 64.16 L18.3 66.26 L18.42 66.26 L18.42 66.8 L18.54 66.8 L18.54 67.28 L18.6 67.28 L18.6 67.58
							 L18.72 67.58 L18.72 67.76 L18.84 67.76 L18.84 68.06 L18.9 68.06 L18.9 68.3 L19.02 68.3 L19.02 68.6 L19.14
							 68.6 L19.14 68.78 L19.2 68.78 L19.2 68.9 L19.32 68.9 L19.32 69.08 L19.44 69.08 L19.44 69.2 L19.5 69.2
							 L19.5 69.38 L19.62 69.38 L19.62 69.56 L19.74 69.56 L19.74 69.68 L19.8 69.68 L19.8 69.8 L19.92 69.8 L19.92
							 69.98 L20.04 69.98 L20.04 70.1 L20.1 70.1 L20.1 70.16 L20.22 70.16 L20.22 70.28 L20.34 70.28 L20.34
							 70.4 L20.4 70.4 L20.4 70.46 L20.52 70.46 L20.52 70.58 L20.64 70.58 L20.64 70.7 L20.7 70.7 L20.7 70.76
							 L20.82 70.76 L20.82 70.88 L20.94 70.88 L20.94 71 L21 71 L21 71.06 L21.12 71.06 L21.12 71.18 L21.3 71.18
							 L21.3 71.3 L21.42 71.3 L21.42 71.36 L21.54 71.36 L21.54 71.48 L21.72 71.48 L21.72 71.6 L21.84 71.6 L21.84
							 71.66 L22.02 71.66 L22.02 71.78 L22.14 71.78 L22.14 71.9 L22.32 71.9 L22.32 71.96 L22.5 71.96 L22.5
							 72.08 L22.74 72.08 L22.74 72.2 L23.04 72.2 L23.04 72.26 L23.34 72.26 L23.34 72.38 L23.52 72.38 L23.52
							 72.5 L23.82 72.5 L23.82 72.56 L24.3 72.56 L24.3 72.68 L24.72 72.68 ZM14.1 15.5 L14.1 15.56 L15.24 15.56
							 L15.24 15.5 L15.6 15.5 L15.6 15.38 L15.9 15.38 L15.9 15.26 L16.14 15.26 L16.14 15.2 L16.32 15.2 L16.32
							 15.08 L16.5 15.08 L16.5 14.96 L16.62 14.96 L16.62 14.9 L16.8 14.9 L16.8 14.78 L16.92 14.78 L16.92 14.66
							 L17.04 14.66 L17.04 14.6 L17.1 14.6 L17.1 14.48 L17.22 14.48 L17.22 14.36 L17.34 14.36 L17.34 14.3 L17.4
							 14.3 L17.4 14.06 L17.52 14.06 L17.52 14 L17.64 14 L17.64 13.76 L17.7 13.76 L17.7 13.58 L17.82 13.58
							 L17.82 13.4 L17.94 13.4 L17.94 13.1 L18 13.1 L18 12.8 L18.12 12.8 L18.12 11.6 L18 11.6 L18 11.18 L17.94
							 11.18 L17.94 10.88 L17.82 10.88 L17.82 10.7 L17.7 10.7 L17.7 10.46 L17.64 10.46 L17.64 10.28 L17.52
							 10.28 L17.52 10.16 L17.4 10.16 L17.4 10.1 L17.34 10.1 L17.34 9.86 L17.22 9.86 L17.22 9.8 L17.1 9.8 L17.1
							 9.68 L17.04 9.68 L17.04 9.56 L16.8 9.56 L16.8 9.5 L16.74 9.5 L16.74 9.38 L16.62 9.38 L16.62 9.26 L16.44
							 9.26 L16.44 9.2 L16.32 9.2 L16.32 9.08 L16.14 9.08 L16.14 8.96 L15.84 8.96 L15.84 8.9 L15.54 8.9 L15.54
							 8.78 L15 8.78 L15 8.66 L14.4 8.66 L14.4 8.78 L13.92 8.78 L13.92 8.9 L13.5 8.9 L13.5 8.96 L13.32 8.96
							 L13.32 9.08 L13.14 9.08 L13.14 9.2 L12.9 9.2 L12.9 9.26 L12.72 9.26 L12.72 9.38 L12.6 9.38 L12.6 9.5
							 L12.54 9.5 L12.54 9.56 L12.42 9.56 L12.42 9.68 L12.3 9.68 L12.3 9.8 L12.24 9.8 L12.24 9.86 L12.12 9.86
							 L12.12 9.98 L12 9.98 L12 10.1 L11.94 10.1 L11.94 10.16 L11.82 10.16 L11.82 10.4 L11.7 10.4 L11.7 10.58
							 L11.64 10.58 L11.64 10.76 L11.52 10.76 L11.52 11 L11.4 11 L11.4 11.36 L11.34 11.36 L11.34 11.9 L11.22
							 11.9 L11.22 12.38 L11.34 12.38 L11.34 12.98 L11.4 12.98 L11.4 13.28 L11.52 13.28 L11.52 13.46 L11.64
							 13.46 L11.64 13.7 L11.7 13.7 L11.7 13.88 L11.82 13.88 L11.82 14.06 L11.94 14.06 L11.94 14.18 L12 14.18
							 L12 14.3 L12.12 14.3 L12.12 14.48 L12.24 14.48 L12.24 14.6 L12.3 14.6 L12.3 14.66 L12.54 14.66 L12.54
							 14.78 L12.6 14.78 L12.6 14.9 L12.72 14.9 L12.72 14.96 L12.9 14.96 L12.9 15.08 L13.02 15.08 L13.02 15.2
							 L13.2 15.2 L13.2 15.26 L13.44 15.26 L13.44 15.38 L13.8 15.38 L13.8 15.5 L14.1 15.5 Z" class="st3"/>
			</g>
			<g id="shape12-22" v:mID="12" v:groupContext="shape" transform="translate(24.7193,-35.0403)">
				<title>Feuille.12</title>
				<path d="M1.2 93.98 C0.54 93.98 0 94.52 0 95.18 C0 95.84 0.54 96.38 1.2 96.38 C1.86 96.38 2.4 95.84 2.4 95.18 C2.4
							 94.52 1.86 93.98 1.2 93.98 Z" class="st3"/>
			</g>
			<g id="shape13-24" v:mID="13" v:groupContext="shape" transform="translate(24.7193,-25.1402)">
				<title>Feuille.13</title>
				<path d="M1.2 93.98 C0.54 93.98 0 94.52 0 95.18 C0 95.9 0.54 96.38 1.2 96.38 C1.86 96.38 2.4 95.9 2.4 95.18 C2.4
							 94.52 1.86 93.98 1.2 93.98 Z" class="st3"/>
			</g>
			<g id="shape14-26" v:mID="14" v:groupContext="shape" transform="translate(29.6392,-30.0602)">
				<title>Feuille.14</title>
				<path d="M1.2 93.98 C0.54 93.98 0 94.52 0 95.18 C-0 95.84 0.54 96.38 1.2 96.38 C1.92 96.38 2.46 95.84 2.46 95.18
							 C2.46 94.52 1.92 93.98 1.2 93.98 Z" class="st3"/>
			</g>
			<g id="shape15-28" v:mID="15" v:groupContext="shape" transform="translate(19.7395,-30.0602)">
				<title>Feuille.15</title>
				<path d="M2.4 95.18 C2.4 94.52 1.86 93.98 1.2 93.98 C0.54 93.98 0 94.52 0 95.18 C-0 95.84 0.54 96.38 1.2 96.38 C1.86
							 96.38 2.4 95.84 2.4 95.18 Z" class="st3"/>
			</g>
			<g id="shape16-30" v:mID="16" v:groupContext="shape" transform="translate(28.1992,-26.5876)">
				<title>Feuille.16</title>
				<path d="M0.36 94.35 C-0.12 94.83 -0.12 95.61 0.36 96.03 C0.84 96.51 1.62 96.51 2.04 96.03 C2.52 95.61 2.52 94.83
							 2.04 94.35 C1.62 93.87 0.84 93.87 0.36 94.35 Z" class="st3"/>
			</g>
			<g id="shape17-32" v:mID="17" v:groupContext="shape" transform="translate(21.1794,-33.6076)">
				<title>Feuille.17</title>
				<path d="M0.36 94.35 C-0.12 94.83 -0.12 95.61 0.36 96.03 C0.84 96.51 1.62 96.51 2.04 96.03 C2.52 95.61 2.52 94.83
							 2.04 94.35 C1.62 93.87 0.84 93.87 0.36 94.35 Z" class="st3"/>
			</g>
			<g id="shape18-34" v:mID="18" v:groupContext="shape" transform="translate(21.1794,-26.5876)">
				<title>Feuille.18</title>
				<path d="M0.36 94.35 C-0.12 94.83 -0.12 95.61 0.36 96.03 C0.84 96.51 1.62 96.51 2.04 96.03 C2.52 95.61 2.52 94.83
							 2.04 94.35 C1.62 93.87 0.84 93.87 0.36 94.35 Z" class="st3"/>
			</g>
			<g id="shape19-36" v:mID="19" v:groupContext="shape" transform="translate(28.1992,-33.6076)">
				<title>Feuille.19</title>
				<path d="M2.04 96.03 C2.52 95.61 2.52 94.83 2.04 94.35 C1.62 93.87 0.84 93.87 0.36 94.35 C-0.12 94.83 -0.12 95.61
							 0.36 96.03 C0.84 96.51 1.62 96.51 2.04 96.03 Z" class="st3"/>
			</g>
		</g>
	</g>
</svg>
